<svg id="Calque_1" data-name="Calque 1" xmlns="http://www.w3.org/2000/svg" xmlns:xlink="http://www.w3.org/1999/xlink" viewBox="0 0 140 141.15"><defs><style>.cls-1,.cls-2{fill-rule:evenodd;}.cls-1{fill:url(#linear-gradient);}.cls-2{fill:url(#linear-gradient-2);}.cls-3{fill:#f9f9f9;}.cls-4{fill:url(#linear-gradient-3);}.cls-5{fill:url(#linear-gradient-4);}.cls-6{fill:url(#linear-gradient-5);}.cls-7{fill:#fabe03;}.cls-8{fill:url(#linear-gradient-6);}.cls-9{fill:#f3c100;}.cls-10{fill:#f1f1f1;}.cls-11,.cls-12{fill:none;stroke-opacity:0.95;}.cls-11{stroke:#000;stroke-width:0.21px;}.cls-12{stroke:#414696;stroke-width:0.11px;}.cls-13{fill:#e53917;}.cls-14{fill:#ee7841;}.cls-15{fill:#f9bf8d;}.cls-16{fill:#f8bf90;}</style><linearGradient id="linear-gradient" x1="-86.85" y1="256.17" x2="-78.89" y2="273.38" gradientTransform="matrix(1.48, 0, 0, -1.47, 225.55, 396.51)" gradientUnits="userSpaceOnUse"><stop offset="0" stop-color="#71160c"/><stop offset="1" stop-color="#71160c" stop-opacity="0"/></linearGradient><linearGradient id="linear-gradient-2" x1="-155.33" y1="310.86" x2="-145.93" y2="329.9" gradientTransform="matrix(1.96, 0, 0, -1.83, 399.05, 596.19)" gradientUnits="userSpaceOnUse"><stop offset="0" stop-color="#c91b17"/><stop offset="1" stop-color="#c91b17" stop-opacity="0"/></linearGradient><linearGradient id="linear-gradient-3" x1="41.88" y1="469.51" x2="42.42" y2="475.72" gradientTransform="matrix(1.07, 0, 0, -5.74, 26.8, 2791.74)" gradientUnits="userSpaceOnUse"><stop offset="0" stop-color="#c9c9c1"/><stop offset="1" stop-color="#c9c9c1" stop-opacity="0"/></linearGradient><linearGradient id="linear-gradient-4" x1="-140.55" y1="282.35" x2="-135.45" y2="292.74" gradientTransform="matrix(1.69, 0, 0, -1.74, 303.41, 577.58)" gradientUnits="userSpaceOnUse"><stop offset="0" stop-color="#4e4d4d"/><stop offset="1" stop-color="#4e4d4d" stop-opacity="0"/></linearGradient><linearGradient id="linear-gradient-5" x1="-84.88" y1="257.12" x2="-80.59" y2="266.63" gradientTransform="matrix(1.48, 0, 0, -1.51, 209.31, 434.45)" gradientUnits="userSpaceOnUse"><stop offset="0"/><stop offset="1" stop-opacity="0"/></linearGradient><linearGradient id="linear-gradient-6" x1="-377.75" y1="57.49" x2="-333.44" y2="88.79" gradientTransform="matrix(1, 0, 0, -1, 424.69, 147.29)" gradientUnits="userSpaceOnUse"><stop offset="0" stop-color="#221c11"/><stop offset="1" stop-color="#221c11" stop-opacity="0"/></linearGradient></defs><path id="path2987" class="cls-1" d="M142.5,72.5c0,39-31.34,70.57-70,70.57s-70-31.59-70-70.57S33.84,1.93,72.5,1.93,142.5,33.52,142.5,72.5Z" transform="translate(-2.5 -1.93)"/><path id="path2997" class="cls-2" d="M137,71.93A65,65,0,1,1,7.1,72v0A65,65,0,1,1,137,71.9Z" transform="translate(-2.5 -1.93)"/><path id="path3007" d="M127.55,72.07c0,31-24.84,56.06-55.48,56.06S16.59,103,16.59,72.07,41.43,16,72.07,16,127.55,41.11,127.55,72.07Z" transform="translate(-2.5 -1.93)"/><path id="path3007-6" class="cls-3" d="M126.11,71.78c0,30.33-24.26,54.91-54.18,54.91S17.74,102.11,17.74,71.78,42,16.87,71.93,16.87,126.11,41.46,126.11,71.78Z" transform="translate(-2.5 -1.93)"/><path id="path5486" class="cls-4" d="M126.47,71.86c0,30.28-24.36,54.83-54.41,54.83A54.83,54.83,0,0,1,72.06,17c30.05,0,54.41,24.55,54.41,54.83Z" transform="translate(-2.5 -1.93)"/><g id="g5496"><path id="path5498" class="cls-5" d="M113.55,72.22A41.26,41.26,0,1,1,72.3,31.11,41.18,41.18,0,0,1,113.55,72.22Z" transform="translate(-2.5 -1.93)"/><path id="path5500" class="cls-6" d="M111.25,71.36A38.38,38.38,0,1,1,72.87,33.13a38.3,38.3,0,0,1,38.38,38.23Z" transform="translate(-2.5 -1.93)"/><path id="path5502" class="cls-7" d="M69.87,31.94c.65-.88,1.73-2.05,3.13-.15l34.59,54.72c1.06,2.21.57,3.52-2,3.81L41.19,92.84c-2.51,0-2.24-1.27-1.73-2.73Z" transform="translate(-2.5 -1.93)"/><path id="path5504" class="cls-8" d="M70.19,31.05c.65-.88,1.33-1.9,2.73,0l34.64,55.49c1.07,2.2.57,3.52-2,3.81L41.16,92.86c-2.51,0-2.24-1.27-1.73-2.73Z" transform="translate(-2.5 -1.93)"/><path id="path5506" class="cls-9" d="M41.24,90.94,71.32,33,106.08,88.5Z" transform="translate(-2.5 -1.93)"/><path id="path5508" d="M94,70.55A21.24,21.24,0,1,1,72.74,49.21,21.29,21.29,0,0,1,94,70.55Z" transform="translate(-2.5 -1.93)"/><path id="path5510" class="cls-10" d="M92.76,70.65a19.92,19.92,0,1,1-19.92-20,20,20,0,0,1,19.92,20Z" transform="translate(-2.5 -1.93)"/></g><path id="path5518" class="cls-11" d="M56.78,82.54a16.89,16.89,0,0,0-.3-2.75c-.35-1.25-1.36-2.28-1.63-3.55a12,12,0,0,1,.1-5.59c.4-1.37.42-2.78,1.63-4.17a7.63,7.63,0,0,1,3.2-2.24c.26.17,1.51-.23.71,1.43,0,0-.72,2.58-1,4a11,11,0,0,0,0,3.56c.2.53.11,1.46.82,1.42s1-.73,1-1.68V70c0-.92.66-1,.92-.92a.87.87,0,0,1,.71.82,27.09,27.09,0,0,1-.3,7.62s-.39.69-.61,1-.77.66-.92,1.12c-.53,1.69.06,3.56.41,5.29.19.94,1.51,2,.91,2.74-.21.27-1-.1-1-.1" transform="translate(-2.5 -1.93)"/><path id="path5518-8" class="cls-11" d="M89.79,82.28a25.91,25.91,0,0,1,0-2.78c.14-1.28.71-2.49.84-3.78a15.39,15.39,0,0,0-.11-5.59c-.39-1.36-.42-2.77-1.62-4.16a9.94,9.94,0,0,0-3.74-2.45c-.26.16-1.41-.13-.61,1.53a34.39,34.39,0,0,1,1.15,4,11.38,11.38,0,0,1,0,3.67c-.19.53,0,1-.67,1s-.5-.4-.69-1.32l-.58-2.83c-.18-.9-.62-1.24-.88-1.2s-.36.68-.38,1.1a24.73,24.73,0,0,0,.62,7.3s.42.7.65,1,.84.75.91,1.22c.29,1.73-.32,2.89-.08,4.18.19,1,0,.12-.12,2.24,0,.34-.28,1.87-.28,1.87" transform="translate(-2.5 -1.93)"/><path id="path5538" class="cls-12" d="M60.57,65.6a13.11,13.11,0,0,0,4,1.37c1.76,0,3.28-1.48,5-1.58s3.32,1.31,5,.93c1-.23,1.39-1.68,2.38-1.8,1.5-.18,2.65,1.86,4.16,1.8,1.17,0,3.09-1.65,3.09-1.65" transform="translate(-2.5 -1.93)"/><path id="path5540" class="cls-12" d="M60.1,67.54l4.71,1.08,5-.58,5.1.29L76,67.76l6,.43,2.87-1.44" transform="translate(-2.5 -1.93)"/><path id="path5542" class="cls-12" d="M59.56,69.7l1.8.43" transform="translate(-2.5 -1.93)"/><path id="path5544" class="cls-12" d="M63.23,70.63,75,70.2a4.1,4.1,0,0,1,1.36-.79c1.4-.23,4.17.86,4.17.86l1.72-.07" transform="translate(-2.5 -1.93)"/><path id="path5546" class="cls-12" d="M63.44,73l18.91-.64" transform="translate(-2.5 -1.93)"/><path id="path5548" class="cls-12" d="M63.44,74.8l19-.36" transform="translate(-2.5 -1.93)"/><path id="path5550" class="cls-12" d="M62.87,76.74a13.54,13.54,0,0,0,2.73.86c4.84.51,14.52-1.43,14.52-1.43a4.34,4.34,0,0,0,1.65.71,3,3,0,0,0,1.15-.5" transform="translate(-2.5 -1.93)"/><path id="path5552" class="cls-12" d="M62.44,78.25A7.89,7.89,0,0,0,65,79.69,7.6,7.6,0,0,0,67.76,79l11.85-.72a5,5,0,0,0,1.8.72A7.28,7.28,0,0,0,84,78" transform="translate(-2.5 -1.93)"/><path id="path5554" class="cls-12" d="M61.22,80.55A11.22,11.22,0,0,0,65,81.91a10.76,10.76,0,0,0,3.59-1.29l10.2-.5a8.47,8.47,0,0,0,2.81,1.08,9.38,9.38,0,0,0,3.16-1.08" transform="translate(-2.5 -1.93)"/><path id="path5556" class="cls-12" d="M61,82.27s2.23,1.58,3.52,1.66c1.69.1,3.57-1.38,4.82-1.58.09,0,4.4,1.89,7.94-.33,1.25-.78,3,1.21,4.28,1.26a8.24,8.24,0,0,0,3-1.08" transform="translate(-2.5 -1.93)"/><path id="path5558" class="cls-12" d="M61.79,84.65a12.29,12.29,0,0,0,3.88,1.15c1.51-.06,2.73-1.59,4.24-1.59,1.31,0,2.36,1.36,3.67,1.37,1.65,0,3-1.68,4.67-1.65,1.31,0,2.35,1.45,3.66,1.43a6.82,6.82,0,0,0,2.52-1.07" transform="translate(-2.5 -1.93)"/><path id="path5560" class="cls-12" d="M62.73,87.3a7.73,7.73,0,0,0,2.8.94c1.6-.08,2.79-1.86,4.38-1.94s2.71,1.38,4.17,1.36,2.65-1.44,4.1-1.43c1.18,0,2.16,1.16,3.34,1.18a8.54,8.54,0,0,0,2.69-.82" transform="translate(-2.5 -1.93)"/><path id="path5562" class="cls-13" d="M67.63,65.05l-.08-2.88-.43-4.09c-1.29,6.63-3.58,13.31-1.21,19.76,1.67,1,4.69-3.87,6.1-7.4l.14-5.82L74,66.7l-.29-3.3-2.3-5-1.5-5.9a15.17,15.17,0,0,0-.26,2A71.73,71.73,0,0,0,70.79,64a7,7,0,0,1-1.66,3.16V64.26Z" transform="translate(-2.5 -1.93)"/><path id="path5564" class="cls-13" d="M72.52,66l0,4.49s-2.67,4.84-4.2,7.12a3.2,3.2,0,0,0-.29,3A2.75,2.75,0,0,0,70,81.93a4,4,0,0,0,3.09-.86c1.24-1.06,2.05-4.42,2.05-4.42l1.69-.51L78.2,69.5l1,7a3.86,3.86,0,0,0,.86-.72c.76-1.12.72-3.88.72-3.88s-.31-3.3-1.22-4.6a36.48,36.48,0,0,1-3.27-6.64l-.58-4.14a25.09,25.09,0,0,0-.54,3.56,38.45,38.45,0,0,0,1.4,7.65L76,73.34l-.54.25-1.18-5.32Z" transform="translate(-2.5 -1.93)"/><path id="path5566" class="cls-14" d="M78.2,69.39l1.08,7.11a8.3,8.3,0,0,1-.58,3.17s-1.85,2.17-3.15,2.51-3.76-.61-3.76-.61a3.76,3.76,0,0,0,1.36-.67,10.65,10.65,0,0,0,2-4.46l1.73-.51Z" transform="translate(-2.5 -1.93)"/><path id="path5570" class="cls-15" d="M69,65.21h-.86l-1.58,5.6-.5-.07,1.72,3.45-.28-3.38Z" transform="translate(-2.5 -1.93)"/><path id="path5590" class="cls-16" d="M73,66.54a13.57,13.57,0,0,1-.66,4.57c-.69,2-2.12,3.68-3.15,5.54-.5.91-1.48,2.75-1.48,2.75l-1.11-1.73A48.91,48.91,0,0,0,70,73.35a14.24,14.24,0,0,0,1.88-3.91A11.18,11.18,0,0,0,72,65.88a11.45,11.45,0,0,0-.25-1.37,2.64,2.64,0,0,1,1,.61A2.52,2.52,0,0,1,73,66.54Z" transform="translate(-2.5 -1.93)"/><path id="path5610-9" d="M122.35,77.65,119,75.19l-3,2.76,1.29-4-3.57-2h4.2l.84-4,1.31,4,4.09-.44-3.39,2.48Z" transform="translate(-2.5 -1.93)"/><path id="path5610-1" d="M27.2,79.28l-3.4-2.46-3.05,2.76,1.29-4-3.57-2h4.19l.85-4,1.3,4,4.09-.44-3.39,2.47Z" transform="translate(-2.5 -1.93)"/><path id="path5720" d="M35.26,102.46l-1.69,1.29c-.36.27-.56.48-.58.63a.74.74,0,0,0,.19.62l.18.22-.16.12-1.94-2.42.16-.12.17.21a.74.74,0,0,0,.65.33,1.77,1.77,0,0,0,.69-.39l3.74-2.85c.36-.27.56-.48.59-.63a.75.75,0,0,0-.2-.62l-.17-.21.16-.12,1.66,2.06a4.64,4.64,0,0,1,.79,1.32,1.92,1.92,0,0,1,0,1.14,1.69,1.69,0,0,1-.66,1,2,2,0,0,1-1.52.42,2.33,2.33,0,0,1-1.47-1,4.58,4.58,0,0,1-.33-.46C35.47,102.87,35.36,102.67,35.26,102.46Zm.24-.18c.09.17.17.31.25.44l.21.3a1.32,1.32,0,0,0,.94.49,1.69,1.69,0,0,0,1.15-.36,1.94,1.94,0,0,0,.57-.68,1.28,1.28,0,0,0,.15-.8,1.61,1.61,0,0,0-.34-.74,3.65,3.65,0,0,0-.52-.48Z" transform="translate(-2.5 -1.93)"/><path id="path5722" d="M42,105.86l-.83.66c.79-.13,1.32,0,1.57.3a.63.63,0,0,1,.15.48.5.5,0,0,1-.2.39.44.44,0,0,1-.34.11.42.42,0,0,1-.31-.17.71.71,0,0,1-.11-.43.64.64,0,0,0-.06-.37.34.34,0,0,0-.2-.1,2.61,2.61,0,0,0-.84.06L39,108.19a1.46,1.46,0,0,0-.41.44.59.59,0,0,0,0,.33,1.07,1.07,0,0,0,.23.45l-.15.11-1.48-1.91.15-.11a1,1,0,0,0,.41.35.45.45,0,0,0,.32,0,2.51,2.51,0,0,0,.41-.29l1.42-1.13a6.64,6.64,0,0,0,.75-.64.36.36,0,0,0,.1-.24.4.4,0,0,0-.08-.22,1.16,1.16,0,0,0-.28-.24l.11-.15,1.32.77Z" transform="translate(-2.5 -1.93)"/><path id="path5724" d="M42.17,113.27a2.32,2.32,0,0,1-.76-2,2.78,2.78,0,0,1,.79-1.71,3.32,3.32,0,0,1,1.23-.8,2.47,2.47,0,0,1,1.43-.14,2.36,2.36,0,0,1,1.21.65,2.2,2.2,0,0,1,.71,2A2.89,2.89,0,0,1,46,113a3.17,3.17,0,0,1-1.25.8,2.6,2.6,0,0,1-1.42.11A2.42,2.42,0,0,1,42.17,113.27Zm.39-.14a1.11,1.11,0,0,0,.57.29,1.22,1.22,0,0,0,.79-.12,3,3,0,0,0,.95-.71,4.06,4.06,0,0,0,1-1.75,1.36,1.36,0,0,0-.3-1.43,1.09,1.09,0,0,0-1-.3,2.53,2.53,0,0,0-1.35.89,3.55,3.55,0,0,0-1.09,2,1.23,1.23,0,0,0,.37,1.12Z" transform="translate(-2.5 -1.93)"/><path id="path5726" d="M50.93,111.08l-.73,1.57,1.12.52-.17.36L50,113l-1.44,3.1a1.15,1.15,0,0,0-.15.69.49.49,0,0,0,.26.32.64.64,0,0,0,.39,0,.67.67,0,0,0,.39-.2l.21.1a1.83,1.83,0,0,1-.88.53,1.19,1.19,0,0,1-.8-.06,1.06,1.06,0,0,1-.41-.35.86.86,0,0,1-.16-.54,2.15,2.15,0,0,1,.24-.82l1.49-3.21-.75-.35.08-.17a2.21,2.21,0,0,0,.76-.12,3.23,3.23,0,0,0,.84-.4,5.83,5.83,0,0,0,.67-.57Z" transform="translate(-2.5 -1.93)"/><path id="path5728" d="M52.68,116.39a2.77,2.77,0,0,0,.11,1.93,1.77,1.77,0,0,0,1.15,1,1.53,1.53,0,0,0,1-.06,2.2,2.2,0,0,0,.85-.79l.15.15a2.75,2.75,0,0,1-1,1.22,1.85,1.85,0,0,1-1.56.28A2.1,2.1,0,0,1,51.9,119a2.82,2.82,0,0,1-.18-2.09A3,3,0,0,1,52.9,115a2.24,2.24,0,0,1,1.87-.32,2,2,0,0,1,1.27.92,2.14,2.14,0,0,1,.17,1.65Zm.08-.32,2.37.59a2.25,2.25,0,0,0,0-.73,1.17,1.17,0,0,0-.29-.59,1.13,1.13,0,0,0-.53-.32,1.17,1.17,0,0,0-.92.15,1.65,1.65,0,0,0-.68.9Z" transform="translate(-2.5 -1.93)"/><path id="path5730" d="M62.13,120.58A2.9,2.9,0,0,1,61,122a2,2,0,0,1-2.84-.8,3,3,0,0,1-.22-2.13,2.76,2.76,0,0,1,1.14-1.81,2.3,2.3,0,0,1,1.89-.39,1.94,1.94,0,0,1,1.17.66,1.14,1.14,0,0,1,.31.94.46.46,0,0,1-.21.32.58.58,0,0,1-.42,0,.6.6,0,0,1-.45-.32.85.85,0,0,1,0-.48.81.81,0,0,0-.12-.55.86.86,0,0,0-.51-.29,1.12,1.12,0,0,0-1,.23,2.21,2.21,0,0,0-.77,1.35,3,3,0,0,0,.11,1.73,1.39,1.39,0,0,0,1.07,1,1.5,1.5,0,0,0,1.07-.16,2.65,2.65,0,0,0,.8-.81Z" transform="translate(-2.5 -1.93)"/><path id="path5732" d="M66.39,116.32,66.15,118l1.22.17-.06.4-1.21-.17-.48,3.38a1.11,1.11,0,0,0,0,.7.45.45,0,0,0,.35.23.65.65,0,0,0,.38-.06.73.73,0,0,0,.32-.31l.22,0a1.7,1.7,0,0,1-.68.76,1.17,1.17,0,0,1-.79.18,1.08,1.08,0,0,1-.49-.22.85.85,0,0,1-.31-.47,2,2,0,0,1,0-.85l.49-3.5-.83-.12,0-.19a2.09,2.09,0,0,0,.7-.33,3.63,3.63,0,0,0,.68-.63,5.3,5.3,0,0,0,.48-.74Z" transform="translate(-2.5 -1.93)"/><path id="path5734" d="M69.89,115.69a.57.57,0,0,1,.41.17.58.58,0,0,1,0,.82.56.56,0,0,1-.82,0,.53.53,0,0,1-.17-.41.56.56,0,0,1,.16-.41A.61.61,0,0,1,69.89,115.69Zm.48,2.75v4.23a1.91,1.91,0,0,0,.07.66.5.5,0,0,0,.21.24,1.1,1.1,0,0,0,.52.08v.21H68.61v-.21a1.22,1.22,0,0,0,.52-.07.48.48,0,0,0,.21-.25,1.91,1.91,0,0,0,.07-.66v-2a6.6,6.6,0,0,0,0-1.11.45.45,0,0,0-.12-.25.36.36,0,0,0-.24-.07,1,1,0,0,0-.39.08l-.08-.2,1.59-.65Z" transform="translate(-2.5 -1.93)"/><path id="path5736" d="M75.45,118.29a2.34,2.34,0,0,1,1.7,1.28,2.72,2.72,0,0,1,.25,1.86,3.37,3.37,0,0,1-.61,1.34,2.49,2.49,0,0,1-1.13.88,2.4,2.4,0,0,1-1.38.1,2.24,2.24,0,0,1-1.66-1.3,3,3,0,0,1-.23-1.88,3.25,3.25,0,0,1,.64-1.34,2.49,2.49,0,0,1,1.14-.85,2.55,2.55,0,0,1,1.28-.09Zm-.25.34a1.16,1.16,0,0,0-.63.05,1.21,1.21,0,0,0-.61.53,2.87,2.87,0,0,0-.42,1.1,4.1,4.1,0,0,0,0,2,1.37,1.37,0,0,0,1,1.05,1.11,1.11,0,0,0,1-.27,2.58,2.58,0,0,0,.67-1.47,3.65,3.65,0,0,0-.16-2.29,1.22,1.22,0,0,0-.91-.74Z" transform="translate(-2.5 -1.93)"/><path id="path5738" d="M81.28,118.87A2.52,2.52,0,0,1,83,117.62a1.24,1.24,0,0,1,.75.16,1.46,1.46,0,0,1,.55.67,3.4,3.4,0,0,1,.21,1l.17,2.24a1.83,1.83,0,0,0,.14.67.43.43,0,0,0,.22.2,1.08,1.08,0,0,0,.52,0l0,.21-2.6.2v-.2H83a.89.89,0,0,0,.5-.15.65.65,0,0,0,.18-.35,4.1,4.1,0,0,0,0-.54l-.17-2.15a2.17,2.17,0,0,0-.27-1,.66.66,0,0,0-.65-.28,1.92,1.92,0,0,0-1.3.85l.22,2.77a1.79,1.79,0,0,0,.11.65.48.48,0,0,0,.24.23,1.53,1.53,0,0,0,.58,0v.21l-2.59.2,0-.21H80a.65.65,0,0,0,.52-.25,1.53,1.53,0,0,0,.08-.79l-.15-2A8.41,8.41,0,0,0,80.3,119a.43.43,0,0,0-.16-.27.31.31,0,0,0-.24-.06,1.17,1.17,0,0,0-.38.12l-.1-.2,1.53-.77.25,0Z" transform="translate(-2.5 -1.93)"/><path id="path5740" d="M95.21,109.53l1.71,2-.15.11a3.32,3.32,0,0,0-1.83-.78,2.51,2.51,0,0,0-1.59.51,2.65,2.65,0,0,0-.9,1.15,2.68,2.68,0,0,0,0,1.6,5.81,5.81,0,0,0,1,1.94,4.48,4.48,0,0,0,1.36,1.27,2.48,2.48,0,0,0,1.53.36,2.9,2.9,0,0,0,1.49-.59,2.67,2.67,0,0,0,.89-1,4.41,4.41,0,0,0,.27-1.8h.21a4.16,4.16,0,0,1-.2,2,3.55,3.55,0,0,1-1.21,1.49,3.5,3.5,0,0,1-3.27.61,4.08,4.08,0,0,1-2.13-1.56,4.49,4.49,0,0,1-.85-2,3.85,3.85,0,0,1,.27-2.08A3.92,3.92,0,0,1,93,111.12a3.75,3.75,0,0,1,1.59-.65.92.92,0,0,0,.35-.1.36.36,0,0,0,.16-.25.84.84,0,0,0-.09-.47Z" transform="translate(-2.5 -1.93)"/><path id="path5742" d="M97.37,108a.58.58,0,0,1,.44-.09.59.59,0,0,1,.47.67A.58.58,0,0,1,98,109a.62.62,0,0,1-.44.1.53.53,0,0,1-.37-.25.51.51,0,0,1-.1-.43A.6.6,0,0,1,97.37,108Zm2,2,2.42,3.47a2,2,0,0,0,.43.5.55.55,0,0,0,.32.08,1.21,1.21,0,0,0,.47-.23l.11.17L101,115.47l-.12-.17a1.19,1.19,0,0,0,.38-.36.56.56,0,0,0,0-.32A2,2,0,0,0,101,114l-1.16-1.66a8,8,0,0,0-.68-.88.46.46,0,0,0-.25-.14.4.4,0,0,0-.24.08,1.57,1.57,0,0,0-.27.29l-.18-.12.93-1.44Z" transform="translate(-2.5 -1.93)"/><path id="path5744" d="M100.69,109.13l1.86-1.63.14.16-.12.1a.48.48,0,0,0-.18.31.38.38,0,0,0,.1.3,1.39,1.39,0,0,0,.41.28l2.84,1.37-1.07-3.08a1.3,1.3,0,0,0-.23-.45.15.15,0,0,0-.12-.07.28.28,0,0,0-.2,0,1.19,1.19,0,0,0-.32.24l-.14-.16,1.29-1.14.14.16a.76.76,0,0,0-.23.36,1.48,1.48,0,0,0,.11.67l1.59,4.63-.18.15L102,109.26a1.51,1.51,0,0,0-.47-.17.94.94,0,0,0-.37,0,1.65,1.65,0,0,0-.36.18Z" transform="translate(-2.5 -1.93)"/><path id="path5746" d="M104.66,101.78a.54.54,0,0,1,.41-.18.54.54,0,0,1,.41.17.52.52,0,0,1,.18.4.58.58,0,0,1-.57.6.57.57,0,0,1-.42-.17.52.52,0,0,1-.18-.4.57.57,0,0,1,.17-.42Zm2.31,1.57,3,2.94a1.85,1.85,0,0,0,.52.41.51.51,0,0,0,.32,0,1.17,1.17,0,0,0,.42-.32l.15.15-1.78,1.84-.15-.15a1,1,0,0,0,.3-.42.45.45,0,0,0,0-.32,1.64,1.64,0,0,0-.42-.52l-1.45-1.41a7.31,7.31,0,0,0-.84-.74.44.44,0,0,0-.27-.08.27.27,0,0,0-.21.12.9.9,0,0,0-.21.34l-.21-.09.64-1.59Z" transform="translate(-2.5 -1.93)"/><path id="path5748" d="M107.14,98.59l5.21,4.65a2,2,0,0,0,.53.39.53.53,0,0,0,.33,0,1.17,1.17,0,0,0,.44-.36l.15.14-1.72,1.93-.15-.14a1.08,1.08,0,0,0,.27-.42.46.46,0,0,0,0-.32,2,2,0,0,0-.44-.5l-3.57-3.18a8.81,8.81,0,0,0-.84-.7A.5.5,0,0,0,107,100a.33.33,0,0,0-.21.12,1,1,0,0,0-.18.35l-.22-.06.56-1.6Z" transform="translate(-2.5 -1.93)"/><path id="path5750" d="M113.12,99.47a2.66,2.66,0,0,0,1.79.69,1.72,1.72,0,0,0,1.36-.64,1.45,1.45,0,0,0,.34-.88,2.23,2.23,0,0,0-.37-1.11l.2-.07a2.78,2.78,0,0,1,.69,1.44,1.87,1.87,0,0,1-.39,1.54,2.13,2.13,0,0,1-1.59.82,2.87,2.87,0,0,1-2-.7A3,3,0,0,1,112,98.71a2.24,2.24,0,0,1,.48-1.83,1.91,1.91,0,0,1,1.36-.78,2.1,2.1,0,0,1,1.58.52Zm-.27-.2,1.51-1.92a2,2,0,0,0-.63-.34,1.14,1.14,0,0,0-.66,0,1.07,1.07,0,0,0-.52.35,1.21,1.21,0,0,0-.23.9A1.63,1.63,0,0,0,112.85,99.27Z" transform="translate(-2.5 -1.93)"/><g id="text5772"><path id="path5777" d="M116.85,60.69a3.07,3.07,0,0,1-1.13.12,6.58,6.58,0,0,1-1-.18l0-.14.47-.1.36-.09c.48-.15,1.13-.39,2-.73s1.7-.7,2.59-1.09c.55-.23,1.1-.48,1.66-.74l.75.12.76.13-2.06.93q-1.31.59-2.37,1-1.32.54-2,.75Z" transform="translate(-2.5 -1.93)"/><path id="path5779" d="M113.72,57.2l-1-3.4,1.2-.36.82,2.7,5.58-2.58.07-.41a4.48,4.48,0,0,1,.91-.19,4.31,4.31,0,0,1,.88,0l0,.13a.66.66,0,0,0-.46.63c0,.25-.05.51-.07.77a5.18,5.18,0,0,1-.75.17,3.2,3.2,0,0,1-.62.05v-.37l-5.15,2.45Z" transform="translate(-2.5 -1.93)"/><path id="path5781" d="M112.89,54.19c-1-2.51-4.4-7.5-5.81-10l.74-.83a50.46,50.46,0,0,1,5,7.86c.14-.61.23-1.1.28-1.5a5.07,5.07,0,0,0,0-1.27,3.5,3.5,0,0,0-.31-1.16,4.63,4.63,0,0,0-.36-.65,2.32,2.32,0,0,1,1,.14,1.69,1.69,0,0,1,.94.92,3.13,3.13,0,0,1,.08,1.87c-.08.4-.26,1.08-.56,2a3.74,3.74,0,0,0-.27,1.43l.29.7Z" transform="translate(-2.5 -1.93)"/><path id="path5783" d="M107,44.24l-.49-.56a3.53,3.53,0,0,1-.54-1,4.24,4.24,0,0,1-.28-1.38,2.54,2.54,0,0,1-1.09-.18,3.14,3.14,0,0,1-1-.84l-.73-.85,1-.81.71.83a2.1,2.1,0,0,0,1,.67,2.6,2.6,0,0,0,1,.07,4.4,4.4,0,0,1,1.53.11,3,3,0,0,1,1.1.45,12.41,12.41,0,0,1-.52,1.48,3.18,3.18,0,0,1-.75,1.17Zm.54-1.54a3.74,3.74,0,0,0,.43-.76,4,4,0,0,0,.24-.78,1.13,1.13,0,0,0-.62-.23,2.17,2.17,0,0,0-.63,0,2.37,2.37,0,0,0,.09.88,3.16,3.16,0,0,0,.37.85Z" transform="translate(-2.5 -1.93)"/><path id="path5785" d="M102.93,39.49c-3.47-3-6.69-6-11.77-8.21a.92.92,0,0,1-.61-.63,2.54,2.54,0,0,1,0-1.1,13.8,13.8,0,0,1,.35-1.65c.14-.53.29-1.06.44-1.61a9.35,9.35,0,0,0,.3-1.27,2.86,2.86,0,0,0,0-.75,2,2,0,0,0-.22-.71l1.28-1a10.05,10.05,0,0,1-.28,2.08c-.12.49-.45,1.62-1,3.4a4.17,4.17,0,0,0-.17,1.67.54.54,0,0,0,.32.42c5.54,2.17,8.9,5.39,12.3,8.58Z" transform="translate(-2.5 -1.93)"/><path id="path5787" d="M87,29.51l-3.88-1.3.4-1.19,3.38,1.14a3.14,3.14,0,0,0,.22-1.29,3.7,3.7,0,0,0-.36-1.06l.91-.93A4.19,4.19,0,0,1,88,26.05a6.37,6.37,0,0,1-.4,1.8Zm-.49,1.35-.86.8-.9-.95.83-.81ZM84.77,31l-.85.81L83,30.82l.84-.82Z" transform="translate(-2.5 -1.93)"/><path id="path5789" d="M81.67,19.16l-.66,1-1.1-.73.64-1ZM80,19.64l-.65,1-1.1-.71.63-1Zm3.37,8.62-1.72-.48c-.34,0-.62-.36-.82-1a7.37,7.37,0,0,1-.31-1.74,1.8,1.8,0,0,1-.6.57,1.32,1.32,0,0,1-.72.15,6.78,6.78,0,0,1-1.36-.25c-.35-.11-.53-.22-.51-.33a2.06,2.06,0,0,1,.93-1.29,7.61,7.61,0,0,1,2.13-1.1s0-.14,0-.31,0-.27,0-.3a1.18,1.18,0,0,1,.22-.53,3.35,3.35,0,0,1,.41-.47l.06.88q0,.42.09.87l.09,1.25a15.41,15.41,0,0,0,.18,1.54c.1.51.22.77.38.78l1.94.54Zm-2.88-3.82-.06-.8a4.35,4.35,0,0,0-1,.37,2,2,0,0,0-.67.57,2.18,2.18,0,0,0,.34.14l.55.09a1.14,1.14,0,0,0,.86-.37Z" transform="translate(-2.5 -1.93)"/><path id="path5791" d="M63.17,25.83A2.88,2.88,0,0,1,63.31,27a5.91,5.91,0,0,1-.16,1l-.14,0c0-.14-.07-.29-.11-.47s-.08-.29-.1-.35c-.15-.48-.41-1.13-.76-1.95s-.72-1.69-1.13-2.58c-.24-.54-.5-1.09-.76-1.64,0-.23.06-.48.1-.75s.08-.53.12-.77q.36.75,1,2c.41.87.76,1.66,1.06,2.36.37.88.63,1.54.78,2Z" transform="translate(-2.5 -1.93)"/><path id="path5793" d="M61.51,28.3a51.6,51.6,0,0,0-8.59,2.63l-.56-1.1c3.72-1.74,3-1,7.92-2.75L57.92,21.7l-.4-.07a3.86,3.86,0,0,1-.18-.91,3.79,3.79,0,0,1,0-.89l.12.05a.68.68,0,0,0,.63.47l.77.07a5.18,5.18,0,0,1,.17.75,3.12,3.12,0,0,1,0,.63l-.37,0L61.11,27Z" transform="translate(-2.5 -1.93)"/><path id="path5795" d="M53,30.88l-.64.38a3.39,3.39,0,0,1-1,.37,3.9,3.9,0,0,1-1.4,0,2.59,2.59,0,0,1-.37,1,3.24,3.24,0,0,1-1,.82c-1.61,1-3.06,2-4.48,2.89l-.84-.93c1.53-1,2.56-1.9,4.14-2.92.37-.23,1.17-.62,1.35-1a2.49,2.49,0,0,0,.24-1,4.85,4.85,0,0,1,.36-1.49,3,3,0,0,1,.64-1,11.05,11.05,0,0,1,1.37.76,3.15,3.15,0,0,1,1,.93Zm-1.44-.79a3.62,3.62,0,0,0-.67-.56,3.83,3.83,0,0,0-.73-.37,1.19,1.19,0,0,0-.33.57,2.46,2.46,0,0,0-.06.63,2.23,2.23,0,0,0,.88.06,2.83,2.83,0,0,0,.9-.22Z" transform="translate(-2.5 -1.93)"/><path id="path5797" d="M44.15,36.41,41.8,38.6a1.34,1.34,0,0,1-.71.33.69.69,0,0,1-.62-.19,4.35,4.35,0,0,1-.31-.38,4.27,4.27,0,0,1-.26-.44l.12-.11a.69.69,0,0,0,.5.12.85.85,0,0,0,.42-.25l2-1.89a5,5,0,0,0-1.67-1.27,2.29,2.29,0,0,0-2,.06l-.87-1.1a3.52,3.52,0,0,1,2.62.23,8,8,0,0,1,2.22,1.78Z" transform="translate(-2.5 -1.93)"/><path id="path5799" d="M32.49,38.68l.56,1-1.14.64-.58-1Zm5.85,3.2a32.59,32.59,0,0,0-5.41,8.19l-1.3-.74A32.22,32.22,0,0,1,37,41.63a3.12,3.12,0,0,0-1.19-.55,3.58,3.58,0,0,0-1.11.07L34,40a4.41,4.41,0,0,1,1.21,0,6.22,6.22,0,0,1,1.63.85Z" transform="translate(-2.5 -1.93)"/><path id="path5801" d="M33,49.82a66.74,66.74,0,0,0-4.45,9.73l-1.15-.3a57.91,57.91,0,0,1,4.24-9.45,3.4,3.4,0,0,0-1.26-.33,3.69,3.69,0,0,0-1.09.27l-.85-1a3.84,3.84,0,0,1,1.19-.19,6.12,6.12,0,0,1,1.76.55Zm1.3.6.73.93-1,.82-.73-.9Zm-.06,1.78.74.91-1,.83-.74-.9Z" transform="translate(-2.5 -1.93)"/><path id="path5803" d="M19.9,59.17l.88.79-.87,1L19,60.18Zm.25,1.76.88.77-.85,1-.89-.75Zm8.52-1.54-.24,1c-.08.33-.43.56-1.07.68a7.4,7.4,0,0,1-1.76.07,1.7,1.7,0,0,1,.48.67,1.23,1.23,0,0,1,.05.73,6.13,6.13,0,0,1-.42,1.31c-.16.34-.29.5-.4.47a2,2,0,0,1-1.15-1.09A7.91,7.91,0,0,1,23.35,61H23l-.3,0a1.14,1.14,0,0,1-.5-.29,3.14,3.14,0,0,1-.4-.46l.87,0c.28,0,.58,0,.88,0l1.25.08a14.45,14.45,0,0,0,1.54,0q.78,0,.84-.27l.23-1ZM25,61.08l-.8,0a4.58,4.58,0,0,0,.23,1.06,1.93,1.93,0,0,0,.48.73,2.13,2.13,0,0,0,.18-.31c.05-.13.1-.31.16-.53a1.15,1.15,0,0,0-.25-.91Z" transform="translate(-2.5 -1.93)"/></g></svg>