<?xml version="1.0" encoding="utf-8"?>
<!-- Generator: Adobe Illustrator 21.1.0, SVG Export Plug-In . SVG Version: 6.00 Build 0)  -->
<svg version="1.1" id="Layer_1" xmlns="http://www.w3.org/2000/svg" xmlns:xlink="http://www.w3.org/1999/xlink" x="0px" y="0px"
	 viewBox="0 0 321.8 216.5" style="enable-background:new 0 0 321.8 216.5;" xml:space="preserve">
<style type="text/css">
	.st0{fill:#B1B1B0;}
	.st1{fill:#F2B736;}
	.st2{fill:#332418;}
</style>
<g>
	<path class="st0" d="M258.1,166.7c-12-8.2-25.1-36-4.3-71.7c9.4-17.5,20.5-42.4,1.3-45.3c-20.7-4.2-154.6,35-199.9,95.7
		c19.7-2.4,62.6-39.4,81.5-46.5c42.6-21.5,129-62,116-23.5C242,101.5,210.4,148.5,258.1,166.7"/>
	<path class="st1" d="M258.1,166.7c-12-8.2-25.1-36-4.3-71.7c9.4-17.5,20.5-42.4,1.3-45.3c-20.7-4.2-154.6,35-199.9,95.7
		c19.7-2.4,62.6-39.4,81.5-46.5c42.6-21.5,129-62,116-23.5C242,101.5,210.4,148.5,258.1,166.7"/>
	<path class="st2" d="M229.6,129.3c0,2.8,0.6,5.4,1.9,7.8h-19.1c-0.3-0.9-0.6-1.8-0.7-2.8c-0.1-0.9-0.2-1.9-0.2-2.8l-0.2-0.1
		c-1.2,2.6-3,4.4-5.4,5.5c-2.4,1-5,1.6-8,1.6c-5.5,0-9.4-1.3-11.8-3.9c-2.4-2.6-3.6-6.5-3.6-11.6c0-2.9,0.3-5.3,1-7.3
		c0.7-2,1.6-3.5,2.8-4.8c1.2-1.2,2.6-2.2,4.3-2.9c1.7-0.7,3.5-1.2,5.3-1.6l9.4-2c2.1-0.5,3.6-1,4.4-1.8c0.8-0.7,1.3-2,1.3-3.6
		c0-1.3-0.4-2.3-1.1-3c-0.7-0.7-1.7-1.1-2.8-1.1c-1.1,0-1.9,0.2-2.6,0.5c-0.7,0.4-1.2,0.8-1.5,1.4c-0.3,0.6-0.6,1.2-0.7,1.9
		c-0.1,0.7-0.2,1.5-0.2,2.2h-17.9c0-6,1.8-10.4,5.4-13.3c3.6-2.9,9.4-4.4,17.6-4.4c4.6,0,8.4,0.4,11.3,1.2c2.9,0.8,5.2,1.9,6.8,3.3
		c1.6,1.4,2.8,3,3.3,4.9c0.6,1.8,0.8,3.8,0.8,5.8V129.3z M211.1,111.6c-0.6,0.4-1.3,0.7-2.2,1c-0.8,0.3-1.8,0.6-2.9,1
		c-1.7,0.6-2.7,1.5-3.2,2.6c-0.5,1.2-0.7,2.5-0.7,4.1s0.3,2.8,1,3.8c0.7,1,1.7,1.5,3.1,1.5c1,0,1.8-0.2,2.4-0.6
		c0.6-0.4,1.1-0.9,1.5-1.5c0.4-0.6,0.6-1.3,0.7-2c0.1-0.7,0.2-1.5,0.2-2.3V111.6z"/>
	<path class="st2" d="M99,120.2c0.1,1.1,0.3,2.1,0.4,2.9c0.1,0.8,0.3,1.6,0.7,2.2c0.3,0.6,0.9,1.1,1.5,1.5c0.7,0.4,1.6,0.5,2.8,0.5
		c0.9,0,1.6-0.2,2.2-0.5c0.5-0.3,0.9-0.7,1.3-1.2c0.3-0.5,0.5-0.9,0.6-1.4c0.1-0.5,0.2-0.8,0.2-1.1c0-0.6-0.1-1.2-0.2-1.7
		c-0.1-0.5-0.5-0.9-1-1.3c-0.5-0.4-1.3-0.8-2.4-1.3c-1-0.4-2.5-0.9-4.4-1.5c-3.3-1-6.1-2-8.5-3c-2.4-1-4.4-2.1-5.9-3.3
		c-1.6-1.2-2.7-2.7-3.5-4.3c-0.7-1.6-1.1-3.7-1.1-6.1c0-2.7,0.4-5.1,1.3-7.2c0.8-2.2,2.1-4,3.9-5.6c1.8-1.6,4.1-2.8,6.9-3.6
		c2.8-0.8,6.2-1.3,10.1-1.3c5.7,0,10,0.6,13.1,1.8c3.1,1.2,5.3,2.7,6.7,4.5c1.4,1.8,2.2,3.5,2.5,5.4c0.2,1.8,0.4,3.4,0.4,4.6h-17.2
		c0-0.7-0.1-1.4-0.2-2.1c-0.1-0.7-0.3-1.2-0.7-1.7c-0.7-1-2.1-1.5-4.1-1.5c-1,0-2,0.2-2.9,0.7c-0.9,0.5-1.4,1.4-1.4,2.9
		c0,0.6,0.2,1.2,0.6,1.7c0.4,0.5,1.1,1,2.3,1.6c1.1,0.5,2.7,1.2,4.6,1.8c2,0.7,4.5,1.5,7.6,2.4c1.4,0.5,2.8,1,4.4,1.7
		c1.5,0.6,2.9,1.5,4.1,2.6c1.2,1.1,2.2,2.6,3,4.4c0.8,1.8,1.2,4.1,1.2,6.9c0,3.2-0.6,6-1.9,8.2c-1.3,2.2-2.9,4.1-5,5.5
		c-2.1,1.4-4.6,2.4-7.4,3c-2.8,0.6-5.8,0.9-9,0.9c-3.7,0-7-0.3-9.8-0.8c-2.8-0.5-5.2-1.5-7.2-2.8c-2-1.4-3.5-3.2-4.5-5.6
		c-1.1-2.4-1.6-5.4-1.7-9.1H99z"/>
	<path class="st2" d="M178.6,129.3c0,2.8,0.6,5.4,1.9,7.8h-19.1c-0.4-0.9-0.6-1.8-0.7-2.8c-0.1-0.9-0.2-1.9-0.2-2.8l-0.2-0.1
		c-1.2,2.6-3,4.4-5.4,5.5c-2.4,1-5,1.6-8,1.6c-5.5,0-9.4-1.3-11.8-3.9c-2.4-2.6-3.6-6.5-3.6-11.6c0-2.9,0.4-5.3,1-7.3
		c0.7-2,1.6-3.5,2.8-4.8c1.2-1.2,2.6-2.2,4.3-2.9c1.7-0.7,3.5-1.2,5.3-1.6l9.4-2c2.1-0.5,3.6-1,4.4-1.8c0.8-0.7,1.3-2,1.3-3.6
		c0-1.3-0.4-2.3-1.1-3c-0.7-0.7-1.7-1.1-2.8-1.1c-1,0-1.9,0.2-2.6,0.5c-0.7,0.4-1.2,0.8-1.5,1.4c-0.3,0.6-0.6,1.2-0.7,1.9
		c-0.1,0.7-0.2,1.5-0.2,2.2h-17.9c0-6,1.8-10.4,5.4-13.3c3.6-2.9,9.4-4.4,17.6-4.4c4.6,0,8.4,0.4,11.3,1.2c2.9,0.8,5.2,1.9,6.8,3.3
		c1.6,1.4,2.7,3,3.3,4.9c0.6,1.8,0.8,3.8,0.8,5.8V129.3z M160.1,111.6c-0.6,0.4-1.3,0.7-2.2,1c-0.8,0.3-1.8,0.6-2.9,1
		c-1.7,0.6-2.7,1.5-3.2,2.6c-0.5,1.2-0.7,2.5-0.7,4.1s0.3,2.8,1,3.8c0.7,1,1.7,1.5,3.1,1.5c1,0,1.8-0.2,2.4-0.6
		c0.6-0.4,1.1-0.9,1.5-1.5c0.3-0.6,0.6-1.3,0.7-2c0.1-0.7,0.2-1.5,0.2-2.3V111.6z"/>
	<path class="st2" d="M87.5,159.7l-1.4,6h-4.8l6.2-23.2h6l6.3,23.2h-4.9l-1.6-6H87.5z M92.6,155.7l-1.3-4.9c-0.4-1.4-0.7-3.1-1-4.5
		h-0.1c-0.3,1.4-0.6,3.1-0.9,4.5l-1.2,4.9H92.6z"/>
	<path class="st2" d="M102.2,161c0.8,0.6,2.6,1.3,4,1.3c1.4,0,2-0.6,2-1.4c0-0.9-0.5-1.3-2.2-1.9c-3-1.2-4.2-3.1-4.2-5.1
		c0-3.1,2.4-5.5,6-5.5c1.7,0,3.3,0.5,4.2,1l-0.8,3.6c-0.7-0.4-1.9-1-3.2-1c-1.1,0-1.7,0.5-1.7,1.4c0,0.8,0.6,1.2,2.4,1.9
		c2.8,1.1,4,2.7,4,5.2c0,3.1-2.2,5.4-6.4,5.4c-1.9,0-3.7-0.5-4.8-1.2L102.2,161z"/>
	<path class="st2" d="M115.3,161c0.8,0.6,2.6,1.3,4,1.3c1.4,0,2-0.6,2-1.4c0-0.9-0.5-1.3-2.2-1.9c-3-1.2-4.2-3.1-4.2-5.1
		c0-3.1,2.4-5.5,6-5.5c1.7,0,3.3,0.5,4.2,1l-0.8,3.6c-0.7-0.4-1.9-1-3.2-1c-1.1,0-1.7,0.5-1.7,1.4c0,0.8,0.6,1.2,2.4,1.9
		c2.8,1.1,4,2.7,4,5.2c0,3.1-2.2,5.4-6.4,5.4c-1.9,0-3.6-0.5-4.8-1.2L115.3,161z"/>
	<path class="st2" d="M142.4,160.2c0,2.2,0.1,4,0.1,5.4h-4l-0.2-2.4h-0.1c-0.6,1-2,2.8-4.6,2.8c-3,0-5.2-2.1-5.2-7.3v-9.9h4.6v9.1
		c0,2.4,0.7,3.9,2.3,3.9c1.3,0,2-1,2.3-1.8c0.1-0.3,0.2-0.7,0.2-1.1v-10h4.6V160.2z"/>
	<path class="st2" d="M146,154.3c0-2.5-0.1-4.1-0.1-5.5h4l0.2,3.1h0.1c0.8-2.5,2.6-3.5,4-3.5c0.4,0,0.6,0,1,0.1v4.9
		c-0.3-0.1-0.7-0.1-1.2-0.1c-1.7,0-2.8,1-3.1,2.7c-0.1,0.3-0.1,0.8-0.1,1.2v8.6H146V154.3z"/>
	<path class="st2" d="M165.6,165.6l-0.3-1.7h-0.1c-1,1.3-2.5,2.1-4.2,2.1c-3,0-4.8-2.5-4.8-5.2c0-4.4,3.4-6.5,8.7-6.4v-0.2
		c0-0.9-0.4-2.2-2.7-2.2c-1.5,0-3.1,0.6-4.1,1.3l-0.8-3.4c1-0.7,3-1.5,5.7-1.5c4.9,0,6.5,3.3,6.5,7.3v5.9c0,1.6,0.1,3.2,0.2,4.1
		H165.6z M165,157.6c-2.4,0-4.3,0.6-4.3,2.7c0,1.3,0.8,2,1.8,2c1.1,0,2.1-0.9,2.4-1.9c0.1-0.3,0.1-0.6,0.1-0.9V157.6z"/>
	<path class="st2" d="M173.1,154.1c0-2.1-0.1-3.9-0.1-5.4h4l0.2,2.3h0.1c0.6-1.1,2.1-2.7,4.6-2.7c3,0,5.3,2.3,5.3,7.2v10h-4.6v-9.3
		c0-2.2-0.7-3.7-2.3-3.7c-1.3,0-2,1-2.3,2c-0.1,0.3-0.2,0.8-0.2,1.3v9.7h-4.6V154.1z"/>
	<path class="st2" d="M201.8,165.2c-0.8,0.4-2.3,0.8-4.1,0.8c-4.8,0-7.8-3.3-7.8-8.6c0-4.9,3-9,8.4-9c1.2,0,2.5,0.2,3.5,0.7
		l-0.7,3.9c-0.5-0.3-1.4-0.5-2.6-0.5c-2.4,0-4,2-3.9,4.7c0,3.1,1.8,4.7,4,4.7c1.1,0,1.9-0.2,2.6-0.5L201.8,165.2z"/>
	<path class="st2" d="M207.6,158.9c0.2,2.2,2,3.2,4.2,3.2c1.6,0,2.8-0.2,4.1-0.7l0.6,3.6c-1.5,0.7-3.3,1-5.3,1c-5,0-7.9-3.3-7.9-8.6
		c0-4.3,2.3-9,7.5-9c4.8,0,6.6,4.2,6.6,8.4c0,0.9-0.1,1.7-0.2,2.1H207.6z M213,155.3c0-1.3-0.5-3.4-2.6-3.4c-1.9,0-2.7,2-2.8,3.4
		H213z"/>
	<path class="st2" d="M219.9,161c0.8,0.6,2.6,1.3,4,1.3c1.4,0,2-0.6,2-1.4c0-0.9-0.5-1.3-2.2-1.9c-3-1.2-4.2-3.1-4.2-5.1
		c0-3.1,2.4-5.5,6-5.5c1.7,0,3.3,0.5,4.2,1l-0.8,3.6c-0.7-0.4-1.9-1-3.2-1c-1.1,0-1.7,0.5-1.7,1.4c0,0.8,0.6,1.2,2.4,1.9
		c2.8,1.1,4,2.7,4,5.2c0,3.1-2.2,5.4-6.4,5.4c-1.9,0-3.7-0.5-4.8-1.2L219.9,161z"/>
</g>
</svg>
