<svg xmlns="http://www.w3.org/2000/svg" width="1739" height="1637" viewBox="0 0 1739 1637" version="1.1"><path d="M 1162.542 0.708 C 1159.242 1.582, 1156.133 4.049, 1154.018 7.472 C 1147.660 17.758, 1155.038 24.644, 1186 37.322 C 1206.433 45.689, 1217.823 50.901, 1240.820 62.410 C 1320.018 102.043, 1392.948 154.991, 1457.960 220.056 C 1552.431 314.604, 1623.886 429.059, 1664.885 551.500 C 1687.304 618.456, 1700.086 678.147, 1705.464 741 C 1710.132 795.558, 1709.927 867.427, 1704.955 919.500 C 1697.364 998.995, 1678.281 1074.205, 1643.806 1160.500 C 1634.720 1183.244, 1634.354 1186.145, 1639.728 1192.825 C 1643.315 1197.282, 1648.578 1201, 1651.303 1201 C 1664.127 1201, 1699.309 1108.280, 1717.483 1026.589 C 1728.034 979.165, 1735.459 925.846, 1737.757 881 L 1738.500 866.500 1739.043 880.500 L 1739.586 894.500 1739.755 877.500 C 1740.050 847.689, 1738.156 777.162, 1736.531 757.500 C 1726.947 641.477, 1698.289 535.335, 1649.592 435.500 C 1617.244 369.181, 1584.070 318.451, 1532.540 256.505 C 1493.677 209.784, 1467.299 182.922, 1428.184 150.229 C 1362.399 95.245, 1283.155 46.388, 1208.412 14.729 C 1181.662 3.399, 1168.069 -0.756, 1162.542 0.708 M 39.121 630.675 C 34.534 632.982, 32.628 636.424, 28.048 650.665 C 17.757 682.664, 8.761 733.805, 3.362 791 C 1.261 813.256, 0.340 903.214, 1.944 929.500 C 9.795 1058.174, 38.929 1167.922, 94.059 1276.500 C 149.491 1385.672, 226.730 1482.817, 319.531 1560.080 C 355.268 1589.833, 409.265 1627.311, 427 1634.670 C 433.435 1637.340, 439.640 1637.641, 442.791 1635.434 C 445.795 1633.330, 449 1626.828, 449 1622.839 C 449 1617.725, 440.494 1610.437, 413.776 1592.662 C 362.267 1558.392, 323.379 1526.591, 280.988 1484.075 C 146.581 1349.272, 59.658 1173.182, 37.098 990 C 28.838 922.932, 27.826 855.404, 34.063 787.500 C 37.549 749.546, 42.499 717.949, 51.141 678.500 C 56.689 653.172, 58.016 641.866, 56.008 637.019 C 53.399 630.721, 45.175 627.631, 39.121 630.675" stroke="none" fill="#ce2027" fill-rule="evenodd"/><path d="M 253.270 529.102 C 246.318 533.555, 235.651 553.808, 221.563 589.304 C 193.387 660.297, 176.919 733.916, 171.904 811.306 C 170.377 834.865, 171.281 900.070, 173.424 921 C 185.803 1041.892, 221.591 1144.724, 284.445 1240 C 337.726 1320.764, 405.276 1389.702, 480.094 1439.669 C 504.506 1455.973, 514.480 1460.115, 521.911 1457.037 C 526.115 1455.295, 530 1449.270, 530 1444.489 C 530 1441.013, 529.317 1439.925, 523.750 1434.540 C 520.313 1431.215, 509.625 1423.147, 500 1416.612 C 444.042 1378.620, 400.435 1339.685, 360.102 1291.705 C 287.191 1204.972, 235.736 1098.139, 213.054 986.400 C 191.556 880.496, 197.918 759.501, 230.501 654.551 C 237.290 632.685, 243.295 616.882, 259.134 579.202 C 268.199 557.637, 273.472 543.796, 273.776 540.768 C 274.207 536.477, 273.963 535.768, 271.158 533.148 C 267.437 529.672, 262.061 526.994, 258.849 527.017 C 257.557 527.026, 255.046 527.965, 253.270 529.102 M 1460.192 528.676 C 1458.373 529.572, 1455.504 531.595, 1453.816 533.171 C 1451.039 535.766, 1450.794 536.484, 1451.224 540.768 C 1451.528 543.796, 1456.801 557.637, 1465.866 579.202 C 1481.705 616.882, 1487.710 632.685, 1494.499 654.551 C 1527.082 759.501, 1533.444 880.496, 1511.946 986.400 C 1478.901 1149.188, 1386.866 1296.432, 1257.500 1393.478 C 1249.250 1399.667, 1234.625 1410.078, 1225 1416.612 C 1215.375 1423.147, 1204.688 1431.215, 1201.250 1434.540 C 1195.683 1439.925, 1195 1441.013, 1195 1444.489 C 1195 1449.270, 1198.885 1455.295, 1203.089 1457.037 C 1210.520 1460.115, 1220.494 1455.973, 1244.906 1439.669 C 1309.132 1396.777, 1365.177 1342.785, 1416.358 1274.500 C 1473.872 1197.766, 1514.294 1110.928, 1535.897 1017.704 C 1543.087 986.676, 1547.875 957.141, 1551.576 921 C 1553.719 900.070, 1554.623 834.865, 1553.096 811.306 C 1549.593 757.254, 1540.712 706.062, 1525.979 655 C 1513.629 612.196, 1491.093 555.439, 1479.561 538.091 C 1472.651 527.697, 1467.379 525.134, 1460.192 528.676" stroke="none" fill="#04743c" fill-rule="evenodd"/><path d="M 836.250 97.737 L 831 98.105 831 104.552 L 831 111 835.918 111 C 843.416 111, 843.546 110.866, 843.165 103.491 C 842.980 99.921, 842.530 97.083, 842.165 97.185 C 841.799 97.287, 839.138 97.535, 836.250 97.737 M 813.571 98.884 C 813.239 99.423, 813.261 102.369, 813.621 105.432 L 814.275 111 820.185 111 L 826.095 111 825.798 104.750 L 825.500 98.500 819.838 98.203 C 816.724 98.039, 813.904 98.346, 813.571 98.884 M 906.436 100.478 C 906.257 101.040, 905.973 103.858, 905.805 106.740 C 905.456 112.730, 905.771 113, 913.082 113 L 918 113 918 107.500 C 918 104.475, 918.112 101.662, 918.250 101.250 C 918.388 100.838, 915.859 100.265, 912.631 99.978 C 909.054 99.661, 906.635 99.856, 906.436 100.478 M 923.641 107.165 C 923.286 110.555, 923.110 113.418, 923.248 113.526 C 923.387 113.634, 926.032 114.007, 929.126 114.355 L 934.752 114.988 935.376 111.869 C 935.719 110.154, 936 107.288, 936 105.500 C 936 102.660, 935.606 102.171, 932.875 101.625 C 931.156 101.281, 928.520 101, 927.017 101 C 924.406 101, 924.256 101.273, 923.641 107.165 M 973.980 110.136 C 973.299 114.186, 969.716 134.825, 966.017 156 C 962.319 177.175, 959.340 194.571, 959.397 194.659 C 959.736 195.180, 983.519 199, 986.424 199 C 990.738 199, 1075.907 222.784, 1078 224.573 C 1078.825 225.278, 1085.245 228.095, 1092.266 230.832 C 1103.593 235.248, 1105.127 235.623, 1105.872 234.154 C 1107.552 230.849, 1139 150.404, 1139 149.414 C 1139 147.998, 1129.036 144.540, 1128.078 145.623 C 1127.652 146.105, 1120.875 162.925, 1113.017 183 C 1105.160 203.075, 1098.423 219.846, 1098.046 220.270 C 1097.240 221.175, 1086.970 217.234, 1085.467 215.442 C 1084.898 214.764, 1082.423 213.637, 1079.967 212.936 C 1077.510 212.236, 1075.193 211.401, 1074.818 211.081 C 1074.443 210.762, 1075.706 204.875, 1077.626 198 C 1080.649 187.173, 1081.066 184.362, 1080.737 177 C 1080.462 170.826, 1079.771 167.367, 1078.214 164.357 C 1069.605 147.729, 1042.395 143.843, 1023.287 156.515 C 1020.420 158.416, 1018.253 159.415, 1018.472 158.736 C 1020.593 152.163, 1031.094 113.765, 1030.837 113.523 C 1030.321 113.036, 1019.684 109.973, 1019.484 110.253 C 1019.388 110.389, 1014.369 128.050, 1008.332 149.500 L 997.355 188.500 994.428 188.309 C 974.502 187.007, 972.826 186.633, 973.494 183.644 C 975.964 172.587, 986.848 105.451, 986.264 104.875 C 985.844 104.462, 983.187 103.819, 980.360 103.447 L 975.219 102.771 973.980 110.136 M 831.450 120.952 C 818.816 121.507, 816.828 121.849, 811.724 124.347 C 802.080 129.065, 799 135.867, 799 152.449 C 799 170.146, 802.774 179.078, 812.263 183.838 C 817.593 186.511, 821.267 186.709, 855.500 186.164 C 872.101 185.900, 882.956 186.391, 907.324 188.508 C 924.277 189.981, 938.392 190.941, 938.691 190.642 C 938.990 190.343, 940.435 175.689, 941.902 158.078 L 944.569 126.058 940.535 125.542 C 938.316 125.258, 930.531 124.534, 923.236 123.933 C 895.561 121.653, 887.786 127.409, 884.970 152.261 C 884.020 160.647, 884.707 169.466, 886.717 174.704 C 887.232 176.048, 886.741 176.172, 883.411 175.540 C 881.260 175.131, 874.498 174.824, 868.384 174.857 L 857.269 174.919 856.643 169.709 C 856.299 166.844, 856.013 159.283, 856.009 152.906 C 856.004 146.529, 855.707 136.516, 855.348 130.656 L 854.696 120 850.098 120.167 C 847.569 120.259, 839.178 120.612, 831.450 120.952 M 623.750 127.776 C 621.138 128.643, 619 129.688, 619 130.100 C 619 130.729, 645.130 214.094, 646.460 217.706 C 646.795 218.617, 648.076 218.523, 651.702 217.323 C 654.341 216.449, 656.850 215.421, 657.278 215.039 C 658.229 214.189, 630.742 126.706, 629.432 126.411 C 628.919 126.296, 626.362 126.910, 623.750 127.776 M 726.500 131.419 C 717.700 133.210, 708.657 135.622, 706.405 136.779 C 696.349 141.945, 692.815 150.803, 694.815 165.827 C 696.997 182.218, 702.240 192.513, 710.368 196.370 C 714.808 198.477, 724.884 198.484, 736.303 196.388 C 741.145 195.500, 745.345 195.012, 745.637 195.304 C 747.164 196.831, 746.965 203.769, 745.302 206.985 C 742.109 213.160, 735.396 215.603, 716.250 217.558 L 710 218.196 710 223.098 L 710 228 717.542 228 C 741.313 228, 756.569 218.992, 758.606 203.753 C 758.998 200.820, 757.431 190.032, 753.560 169 C 745.588 125.687, 746.115 127.988, 744.179 128.081 C 743.256 128.126, 735.300 129.628, 726.500 131.419 M 819.094 133.306 C 813.068 135.418, 811.547 138.716, 811.161 150.507 C 810.735 163.505, 812.641 171.262, 816.774 173.353 C 821.163 175.574, 826.639 176.178, 835.862 175.458 L 844.500 174.784 844.257 160.642 C 844.123 152.864, 843.747 143.238, 843.421 139.250 L 842.829 132 832.665 132.056 C 827.074 132.087, 820.967 132.650, 819.094 133.306 M 906.284 134.658 C 900.378 135.916, 896.851 145.411, 896.719 160.414 C 896.594 174.578, 899.657 177.045, 919.250 178.560 C 926.305 179.106, 928.009 178.972, 928.049 177.868 C 928.075 177.116, 928.878 167.402, 929.831 156.282 L 931.565 136.063 929.033 135.584 C 924.927 134.807, 908.690 134.146, 906.284 134.658 M 587.750 140.210 C 585.138 141.332, 583.010 142.531, 583.023 142.875 C 583.036 143.219, 589.500 160.600, 597.388 181.499 L 611.731 219.499 605.744 221.749 C 602.451 222.987, 598.898 224, 597.850 224 C 596.801 224, 593.353 225.308, 590.186 226.906 L 584.430 229.812 577.778 216.656 C 567.119 195.573, 561.429 190.508, 548.500 190.595 C 538.470 190.663, 525.173 196.479, 514.432 205.496 L 510.532 208.770 512.831 216.635 C 516.197 228.153, 521.194 239.939, 526.340 248.501 L 530.872 256.040 524.186 259.579 C 520.509 261.526, 514.888 264.943, 511.695 267.171 C 508.502 269.400, 505.767 271.060, 505.617 270.861 C 505.467 270.663, 499.111 260.262, 491.492 247.750 C 483.873 235.238, 477.262 225, 476.800 225 C 476.152 225, 468.735 229.258, 467.217 230.501 C 467.061 230.628, 473.341 241.219, 481.172 254.036 C 494.151 275.278, 495.248 277.434, 493.575 278.419 C 492.566 279.014, 487.197 282.501, 481.644 286.170 C 476.092 289.838, 471.239 292.648, 470.861 292.414 C 470.482 292.180, 459.896 277.152, 447.336 259.018 C 434.776 240.884, 424.176 226.037, 423.779 226.024 C 423.383 226.011, 421.046 227.419, 418.586 229.152 L 414.114 232.305 417.259 236.902 C 427.007 251.149, 466.315 307.627, 466.961 308.313 C 467.382 308.760, 472.850 305.559, 479.113 301.200 C 485.376 296.840, 497.700 288.898, 506.500 283.552 C 515.300 278.205, 522.950 273.280, 523.500 272.608 C 524.731 271.102, 598.720 235, 600.574 235 C 601.769 235, 626.080 226.254, 626.751 225.582 C 627.320 225.014, 594.267 138.593, 593.403 138.386 C 592.906 138.268, 590.362 139.089, 587.750 140.210 M 724.179 143.034 C 707.559 146.360, 704.719 149.910, 706.855 164.687 C 708.336 174.926, 711.384 183.455, 714.291 185.491 C 717.087 187.450, 724.257 187.416, 735.283 185.392 C 742.531 184.062, 743.982 183.494, 743.590 182.140 C 743.329 181.238, 741.954 173.975, 740.534 166 C 736.522 143.466, 735.941 140.994, 734.679 141.084 C 734.031 141.131, 729.305 142.008, 724.179 143.034 M 1144.562 200.236 C 1134.210 222.808, 1125.541 242.041, 1125.296 242.974 C 1124.965 244.243, 1126.176 245.222, 1130.083 246.846 C 1132.960 248.041, 1135.418 248.903, 1135.546 248.760 C 1136.021 248.227, 1174 165.089, 1174 164.581 C 1174 163.995, 1169.302 161.446, 1165.699 160.075 C 1163.460 159.224, 1162.764 160.546, 1144.562 200.236 M 1036.162 161.992 C 1030.487 164.034, 1023.735 167.709, 1018 171.876 C 1016.075 173.275, 1014.357 174.505, 1014.183 174.610 C 1013.611 174.954, 1009.023 192.357, 1009.404 192.738 C 1009.841 193.174, 1057.583 206.663, 1060.454 207.161 C 1062.154 207.456, 1062.833 206.006, 1065.677 196 C 1071.366 175.988, 1069.980 167.867, 1060.003 162.750 C 1053.368 159.347, 1044.315 159.059, 1036.162 161.992 M 537.667 204.446 C 532.526 206.559, 524 211.484, 524 212.339 C 524 213.038, 528.920 226.783, 530.500 230.500 C 532.781 235.863, 541.196 250, 542.108 250 C 543.798 250, 573 235.604, 573 234.771 C 573 234.268, 570.058 228.071, 566.461 220.998 C 558.557 205.454, 555.225 201.988, 548.215 202.024 C 545.578 202.037, 540.929 203.105, 537.667 204.446 M 460.332 206.814 C 458.039 208.291, 455.862 209.802, 455.494 210.171 C 454.793 210.874, 459.501 219.574, 461.125 220.577 C 462.340 221.328, 471 216.258, 471 214.795 C 471 213.856, 465.087 203.870, 464.646 204.064 C 464.566 204.099, 462.624 205.337, 460.332 206.814 M 1234.928 209.113 L 1231.647 214.225 1234.007 216.006 C 1235.306 216.985, 1237.589 218.508, 1239.082 219.389 C 1241.796 220.993, 1241.796 220.993, 1244.898 216.159 C 1246.604 213.500, 1248 210.845, 1248 210.257 C 1248 209.347, 1240.033 204, 1238.676 204 C 1238.419 204, 1236.732 206.301, 1234.928 209.113 M 1250.149 218.066 C 1248.417 220.853, 1247 223.440, 1247.001 223.816 C 1247.002 224.586, 1256.998 230.387, 1257.394 229.847 C 1257.534 229.656, 1259.045 227.184, 1260.751 224.354 L 1263.854 219.208 1258.860 216.104 C 1256.114 214.397, 1253.739 213, 1253.583 213 C 1253.427 213, 1251.882 215.280, 1250.149 218.066 M 1208.500 225.907 C 1202.280 228.803, 1195.997 236.179, 1185.585 252.807 C 1180.313 261.226, 1176.025 268.426, 1176.055 268.807 C 1176.105 269.428, 1229.823 303.087, 1231.882 303.788 C 1233.071 304.193, 1252.342 272.567, 1254.604 266.500 C 1256.925 260.277, 1256.902 251.702, 1254.551 246.749 C 1252.277 241.957, 1246.490 236.010, 1239.742 231.529 C 1228.885 224.320, 1216.639 222.117, 1208.500 225.907 M 1213.500 236.877 C 1208.903 239.742, 1205.764 243.564, 1198.620 254.995 C 1193.529 263.140, 1192.334 265.746, 1193.281 266.636 C 1195.033 268.283, 1226.841 288, 1227.744 287.999 C 1229.052 287.998, 1242.753 264.703, 1244.065 260.250 C 1246.614 251.596, 1241.699 244.504, 1228.627 237.971 C 1221.757 234.539, 1217.721 234.247, 1213.500 236.877 M 1264.181 292.234 C 1245.453 317.383, 1241.780 321.796, 1238.245 323.390 C 1233.121 325.700, 1228.777 325.006, 1224.105 321.131 L 1220.710 318.315 1217.204 322.195 L 1213.699 326.076 1216.539 329.041 C 1221.468 334.186, 1227.119 336.275, 1234.913 335.835 C 1246.798 335.164, 1248.287 333.789, 1273.220 300.500 C 1285.165 284.550, 1294.935 271.050, 1294.931 270.500 C 1294.926 269.950, 1292.914 268.023, 1290.461 266.218 L 1285.999 262.936 1264.181 292.234 M 1307 293.640 C 1293.525 309.893, 1280.302 325.859, 1277.616 329.119 C 1272.783 334.984, 1272.752 335.068, 1274.616 337.131 C 1275.652 338.278, 1277.698 340.070, 1279.161 341.113 L 1281.823 343.010 1310.983 307.901 C 1327.020 288.592, 1340.313 272.277, 1340.522 271.646 C 1340.875 270.579, 1333.563 263.946, 1332.142 264.045 C 1331.789 264.069, 1320.475 277.387, 1307 293.640 M 400.929 281.316 C 398.415 282.022, 394.140 283.877, 391.429 285.438 C 386.387 288.340, 369 305.281, 369 307.291 C 369 307.904, 370.437 309.887, 372.193 311.700 L 375.387 314.994 385.027 305.523 C 398.505 292.281, 406.486 289.151, 413.771 294.250 C 417.234 296.674, 435.162 318.023, 434.750 319.231 C 434.612 319.633, 425.725 327.158, 415 335.954 C 404.275 344.749, 392.998 354.467, 389.939 357.549 L 384.378 363.153 373.164 352.653 C 359.813 340.153, 354.240 337, 345.500 337 C 336.721 337, 330.906 340.214, 321.296 350.379 C 317.008 354.914, 312.233 360.961, 310.685 363.817 L 307.870 369.009 310.123 372.255 C 318.553 384.400, 330.935 396.992, 342.750 405.436 C 347.560 408.873, 348 409.518, 348 413.127 C 348 421.542, 355.957 431.521, 370.939 441.894 L 378.378 447.045 382.685 442.819 C 385.054 440.494, 386.656 438.307, 386.246 437.959 C 385.836 437.610, 381.593 434.544, 376.819 431.144 C 361.764 420.425, 356.781 412.738, 360.285 405.639 C 361.137 403.912, 370.534 393.422, 381.167 382.327 C 396.893 365.919, 405.300 358.215, 426.228 341.037 L 451.956 319.920 437.695 302.752 C 422.397 284.337, 418.842 281.483, 410 280.522 C 407.525 280.253, 403.443 280.610, 400.929 281.316 M 819 288.636 C 802.696 289.579, 777.270 292.326, 764.427 294.533 C 676.692 309.609, 590.205 348.572, 518.727 405.224 C 424.751 479.707, 356.081 583.069, 323.143 699.618 C 312.193 738.362, 308.105 769.558, 305.937 830.913 C 304.289 877.572, 306.490 920.880, 312.090 952 C 337.154 1091.264, 417.710 1221.256, 531.500 1306.059 C 558.946 1326.513, 585.964 1343.104, 616.978 1358.547 C 692.357 1396.082, 748.863 1409.338, 844.337 1411.883 C 928.640 1414.130, 978.004 1407.175, 1043.226 1383.864 C 1105.812 1361.496, 1160.258 1330.593, 1213.196 1287.393 C 1229.654 1273.962, 1269.082 1234.776, 1282.992 1218.025 C 1339.819 1149.589, 1378.939 1072.101, 1400.888 984.500 C 1410.237 947.185, 1413.898 916.345, 1415.546 861 C 1416.245 837.552, 1414.787 798.212, 1412.492 778.599 C 1409.481 752.853, 1401.035 716.480, 1390.980 685.945 C 1342.422 538.495, 1232.740 411.416, 1094.195 342.087 C 1041.232 315.584, 975.326 295.939, 921 290.462 C 905.249 288.874, 836.242 287.638, 819 288.636 M 1357.211 299.865 L 1353.109 304.730 1355.804 307.165 C 1361.794 312.576, 1361.789 312.574, 1365.122 309.402 C 1370.532 304.254, 1370.653 303.253, 1366.392 298.889 C 1364.303 296.750, 1362.306 295, 1361.954 295 C 1361.601 295, 1359.467 297.189, 1357.211 299.865 M 807 301.986 C 789.031 302.950, 777.547 304.677, 756 309.654 C 735.827 314.313, 693.472 326.463, 674.701 332.975 C 629.856 348.534, 574.082 379.160, 532 411.334 C 493.677 440.633, 456.215 478.336, 427.503 516.500 C 372.269 589.920, 335.839 679.031, 321.619 775.500 C 316.759 808.467, 315.525 824.655, 315.556 855 C 315.587 884.759, 317.265 903.147, 323.085 937.500 C 350.174 1097.383, 434.542 1227.617, 568 1315.561 C 608.854 1342.482, 649.237 1361.479, 697.327 1376.399 C 762.599 1396.650, 799.027 1401.790, 869.500 1400.693 C 908.529 1400.085, 924.457 1398.812, 953.659 1393.967 C 1031.409 1381.067, 1116.201 1343.992, 1183.608 1293.423 C 1221.041 1265.340, 1257.168 1229.867, 1285.397 1193.477 C 1315.812 1154.269, 1342.505 1108.359, 1361.551 1062.500 C 1375.119 1029.831, 1391.712 974.820, 1396.389 947 C 1401.677 915.548, 1403.980 866.940, 1402.207 824.250 C 1400.380 780.294, 1398.156 763.407, 1389.885 730.723 C 1345.927 556.998, 1224.546 412.432, 1064.500 343.184 C 1021.858 324.734, 970.584 310.085, 932.818 305.563 C 904.726 302.200, 838.248 300.310, 807 301.986 M 1320.992 339.008 C 1307.724 353.313, 1295.570 365.688, 1293.984 366.508 C 1292.397 367.329, 1289.278 368, 1287.053 368 C 1283.818 368, 1282.214 367.284, 1279.059 364.435 C 1274.740 360.532, 1273.545 360.629, 1269.240 365.233 L 1266.980 367.650 1271.499 372.234 C 1281.450 382.327, 1294.776 382.401, 1305.872 372.425 C 1312.291 366.654, 1353.417 322.177, 1353.786 320.608 C 1354.033 319.555, 1346.994 313, 1345.617 313 C 1345.341 313, 1334.260 324.704, 1320.992 339.008 M 1360.500 344.222 C 1352.091 347.205, 1336.578 361.221, 1332.472 369.545 C 1329.685 375.195, 1329.860 383.248, 1332.899 389.193 C 1334.218 391.774, 1338.859 397.728, 1343.213 402.424 L 1351.128 410.963 1346.314 414.053 C 1340.549 417.753, 1336.048 417.621, 1329.930 413.572 C 1326.516 411.313, 1315.780 399.003, 1313.194 394.383 C 1312.405 392.973, 1311.813 393.093, 1308.150 395.405 C 1305.868 396.846, 1304 398.296, 1304 398.628 C 1304 400.522, 1313.755 413.416, 1318.905 418.328 C 1329.582 428.512, 1340.541 431.189, 1350.250 425.983 C 1354.710 423.592, 1406.500 376.528, 1406.500 374.866 C 1406.500 374.418, 1400.894 368.126, 1394.043 360.884 C 1384.814 351.128, 1380.279 347.107, 1376.543 345.368 C 1371.186 342.873, 1365.456 342.464, 1360.500 344.222 M 433.814 348.842 L 429.175 352.675 433.305 357.788 L 437.434 362.901 441.467 359.574 C 443.685 357.745, 445.600 355.629, 445.722 354.874 C 445.844 354.118, 444.259 351.589, 442.199 349.254 L 438.453 345.009 433.814 348.842 M 338.249 350.537 C 333.173 353.092, 324.944 361.161, 322.767 365.719 C 321.865 367.608, 322.250 368.599, 325.362 372.396 C 330.773 379, 340.685 388.698, 346.551 393.126 L 351.713 397.023 360.750 387.762 C 365.721 382.668, 371.029 377.004, 372.546 375.175 L 375.304 371.850 367.402 363.886 C 358.457 354.870, 350.910 349.302, 346.500 348.464 C 344.390 348.063, 341.942 348.678, 338.249 350.537 M 1360.482 357.634 C 1355.306 361.057, 1348.509 367.491, 1344.882 372.400 C 1339.747 379.349, 1341.220 383.929, 1352.622 396.460 L 1358.744 403.188 1374.770 388.402 L 1390.796 373.616 1384.184 366.257 C 1373.511 354.379, 1368.280 352.476, 1360.482 357.634 M 822.500 410.884 C 815.092 414.636, 797.919 430.020, 780.669 448.359 C 773.612 455.862, 767.479 462, 767.040 462 C 766.601 462, 764.743 458.371, 762.912 453.937 C 759.095 444.690, 753.933 438, 750.618 438 C 744.452 438, 729.261 452.425, 727.028 460.401 C 725.922 464.349, 725.982 466.691, 727.430 476.121 C 728.366 482.216, 728.989 487.339, 728.816 487.507 C 728.642 487.674, 718.375 492.634, 706 498.529 C 665.791 517.683, 648.153 524.632, 623.807 530.908 C 594.544 538.451, 593.202 539.813, 589.540 565.652 C 587.063 583.128, 584.673 588.789, 575.306 599.358 C 567.418 608.258, 571.025 612.086, 581.801 606.250 C 594.438 599.406, 596.947 594.566, 596.978 576.974 L 597 564.448 611.750 559.615 C 668.597 540.987, 708.255 519.801, 755.675 482.728 C 765.121 475.343, 776.025 466.947, 779.906 464.070 L 786.962 458.839 794.354 462.919 C 798.420 465.164, 802.913 467, 804.338 467 C 807.075 467, 813.273 462.226, 815.192 458.641 C 816.859 455.527, 816.361 451.211, 813.536 444.270 C 808.349 431.528, 811.545 426.027, 825.012 424.516 C 835.361 423.355, 836.947 422.916, 839.971 420.371 C 846.191 415.137, 842.834 409.144, 833.193 408.270 C 829.412 407.928, 827.334 408.436, 822.500 410.884 M 940.092 425.548 C 936.076 430.122, 931.249 439.819, 926.444 452.967 C 920.530 469.147, 912.852 475.472, 903.742 471.666 C 897.030 468.861, 896.830 466.114, 902.218 450.728 C 903.907 445.903, 905.108 441.774, 904.886 441.552 C 904.663 441.330, 899.862 444.913, 894.216 449.515 C 888.569 454.117, 881.574 459.241, 878.670 460.903 C 872.405 464.487, 863.412 467, 856.849 467 C 854.247 467, 851.862 467.414, 851.550 467.919 C 850.195 470.111, 861.822 478, 866.406 478 C 868.064 478, 872.874 476.777, 877.095 475.282 C 886.052 472.109, 887.428 472.593, 888.535 479.308 C 891.103 494.880, 906.650 495.917, 919.918 481.400 C 928.677 471.816, 946 434.520, 946 425.247 C 946 420.947, 944.044 421.047, 940.092 425.548 M 974.228 432.257 C 969.752 437.022, 959.776 462.672, 958.418 472.907 C 957.846 477.216, 958.012 478.067, 959.533 478.651 C 960.802 479.138, 962.008 478.491, 963.696 476.418 C 969.724 469.016, 979 443.903, 979 434.988 C 979 429.352, 977.672 428.592, 974.228 432.257 M 1033.011 443.728 C 1031.086 444.706, 1029.118 446.665, 1028.621 448.098 C 1027.396 451.634, 1028.668 457.668, 1031.166 460.166 C 1032.897 461.897, 1033.871 462.096, 1037.360 461.428 C 1044.538 460.053, 1047.590 460.478, 1050.969 463.321 C 1059.327 470.353, 1071.161 461.070, 1063.545 453.455 C 1061.408 451.317, 1060.188 451, 1054.112 451 L 1047.132 451 1044.285 446.750 C 1040.986 441.824, 1038.221 441.083, 1033.011 443.728 M 675.073 446.635 C 672.565 449.823, 672.300 456.556, 674.557 459.777 C 676.451 462.482, 681.114 462.743, 683.575 460.282 C 686.114 457.743, 688.838 451.098, 688.255 448.866 C 687.652 446.560, 683.110 444, 679.622 444 C 678.137 444, 676.315 445.055, 675.073 446.635 M 659.306 458.413 C 653.730 463.209, 656.891 475, 663.751 475 C 667.538 475, 672 469.861, 672 465.500 C 672 462.795, 671.241 461.087, 669.077 458.923 C 665.522 455.368, 662.999 455.237, 659.306 458.413 M 740.011 464.487 C 737.467 467.553, 742.184 471.549, 746.893 470.318 C 749.745 469.572, 749.544 467.573, 746.365 465.073 C 743.242 462.616, 741.683 462.472, 740.011 464.487 M 813.899 491.304 C 812.804 492.512, 811.207 494.257, 810.351 495.182 C 809.494 496.107, 806.478 497.963, 803.647 499.307 C 794.254 503.767, 790.261 509.697, 793.413 514.507 C 794.614 516.341, 795.929 517, 798.388 517 C 801.887 517, 807 513.783, 807 511.582 C 807 508.875, 810.652 506.844, 814.294 507.527 C 816.293 507.902, 818.690 507.701, 819.891 507.058 C 822.234 505.804, 826 499.108, 826 496.195 C 826 493.757, 823.111 491.179, 819.084 490.024 C 816.385 489.250, 815.584 489.448, 813.899 491.304 M 1037.421 493.857 C 1030.895 496.884, 1017.305 504.928, 1015.943 506.569 C 1014.843 507.894, 1015.651 507.992, 1022.775 507.398 C 1030.276 506.773, 1031.164 506.907, 1035.177 509.273 C 1037.555 510.675, 1040.810 513.200, 1042.411 514.884 C 1046.644 519.336, 1053.613 521.352, 1062.747 520.766 C 1069.307 520.345, 1071.531 519.630, 1080.691 514.997 C 1092.499 509.026, 1092.583 508.039, 1081.288 508.015 C 1070.889 507.993, 1065.701 505.872, 1051.345 495.772 C 1046.069 492.059, 1042.387 491.553, 1037.421 493.857 M 860.030 506.327 C 860.014 506.782, 859.080 513.307, 857.955 520.827 C 855.577 536.725, 853.446 544.994, 851.722 545.014 C 851.050 545.021, 848.181 542.434, 845.347 539.264 C 842.512 536.094, 839.838 533.849, 839.404 534.276 C 838.970 534.703, 838.364 538.828, 838.057 543.443 C 837.751 548.058, 837.137 552.196, 836.693 552.640 C 834.769 554.565, 829.879 549.986, 813.188 530.630 C 811.367 528.518, 809.714 526.953, 809.515 527.152 C 809.316 527.350, 810.397 532.910, 811.916 539.507 C 815.209 553.802, 816.275 561, 815.102 561 C 814.628 561, 809.826 557.850, 804.429 554 C 799.033 550.150, 794.280 547, 793.868 547 C 791.979 547, 792.179 549.376, 794.641 556.168 C 798.415 566.578, 799.107 570, 797.438 570 C 795.741 570, 782.814 563.206, 763.891 552.367 C 755.857 547.765, 748.953 544, 748.550 544 C 748.147 544, 750.217 547.038, 753.149 550.750 C 764.973 565.718, 776.836 581.908, 777.490 583.967 C 777.871 585.168, 777.918 586.416, 777.594 586.740 C 777.270 587.063, 773.403 586.506, 769 585.500 C 764.597 584.494, 760.659 584.009, 760.247 584.421 C 759.502 585.168, 761.953 587.621, 767.420 591.599 C 772.729 595.461, 770.380 596, 748.241 596 C 735.624 596, 727.969 596.358, 728.550 596.922 C 729.072 597.429, 735.263 600.350, 742.306 603.412 C 760.668 611.397, 768.223 616.212, 766.575 618.879 C 766.233 619.432, 763.826 620.160, 761.227 620.497 C 753.348 621.518, 752.100 621.944, 751.006 623.989 C 749.535 626.737, 752.911 629.995, 757.250 630.015 C 767.034 630.061, 763.752 634.920, 748.800 642.525 C 742.585 645.686, 737.313 648.436, 737.083 648.636 C 735.504 650.016, 739.410 649.675, 751.089 647.412 C 758.479 645.979, 769.988 644.570, 776.723 644.272 C 787.598 643.792, 789.726 643.983, 796.011 646.003 C 799.955 647.272, 802.916 648.766, 802.715 649.387 C 802.269 650.765, 797.863 652.991, 787.541 657.053 C 776.768 661.293, 768.743 661.797, 754 659.158 C 735.884 655.914, 721.004 654.804, 700.500 655.165 C 682.143 655.489, 681.311 655.593, 675.918 658.241 C 672.848 659.749, 664.642 665.708, 657.684 671.484 C 641.823 684.648, 629.443 693.883, 625.323 695.624 C 621.670 697.167, 620.396 700.003, 622.006 703.010 C 624.295 707.289, 631.384 703.166, 656.597 682.894 C 677.327 666.226, 689.397 659, 696.511 659 C 697.880 659, 699.908 659.908, 701.017 661.017 C 702.874 662.874, 702.917 663.260, 701.555 665.893 C 697.245 674.228, 675.102 690.237, 650.344 702.919 C 632.554 712.031, 629.349 714.138, 630.484 715.975 C 631.481 717.588, 638.068 716.788, 652 713.362 C 671.784 708.497, 679.572 703.462, 706.500 678.121 C 719.038 666.322, 722.002 664.005, 724.558 664.003 C 726.240 664.001, 737.715 664.716, 750.058 665.591 C 762.401 666.466, 776.356 667.006, 781.070 666.791 C 791.946 666.296, 795.217 664.456, 807.802 651.750 L 817.104 642.358 803.982 638.533 C 796.764 636.428, 789.892 633.923, 788.709 632.966 C 786.564 631.228, 786.563 631.211, 788.315 623.862 C 789.281 619.813, 792.137 612.225, 794.662 607 C 798.686 598.674, 800.504 596.257, 809.377 587.444 C 820.890 576.008, 828.597 570.579, 837.396 567.707 C 842.666 565.987, 846.234 565.714, 863.500 565.714 C 886.226 565.714, 891.236 566.731, 901.241 573.372 C 916.145 583.265, 933.097 606.328, 937.209 622.308 C 939.187 629.998, 938.432 630.843, 918.277 643.500 C 914.648 645.779, 913.500 647.101, 913.500 649 C 913.500 652.888, 919.842 652.931, 929.388 649.108 C 941.970 644.070, 949.489 642.902, 973.250 642.295 C 985.212 641.989, 995 641.460, 995 641.119 C 995 640.779, 985.550 638.485, 974 636.023 C 962.450 633.561, 953.017 631.311, 953.037 631.023 C 953.058 630.735, 957.176 628.025, 962.190 624.999 C 967.203 621.974, 971.349 619.049, 971.403 618.499 C 971.456 617.950, 968.404 617.194, 964.620 616.820 C 960.836 616.446, 957.260 615.660, 956.673 615.073 C 954.974 613.374, 963.400 606.322, 975.878 599 C 981.971 595.425, 986.966 592.241, 986.978 591.924 C 986.990 591.608, 977.801 592.538, 966.559 593.992 L 946.118 596.636 951.309 590.692 C 963.959 576.207, 963.929 577.153, 951.662 579.500 C 941.960 581.357, 940 581.375, 940 579.611 C 940 578.847, 943.738 572.884, 948.306 566.361 C 959.131 550.904, 958.787 551.509, 955.871 553.067 C 954.567 553.764, 947.810 557.859, 940.855 562.167 C 933.901 566.475, 927.997 570, 927.735 570 C 927.473 570, 926.948 566.850, 926.569 563 C 925.920 556.419, 925.732 556, 923.421 556 C 922.069 556, 918.703 557.182, 915.941 558.626 C 913.179 560.070, 910.623 560.956, 910.261 560.594 C 909.899 560.233, 910.187 555.563, 910.900 550.218 C 911.613 544.873, 912.436 537.237, 912.730 533.250 C 913.183 527.083, 913.027 526, 911.682 526 C 909.875 526, 906.181 530.602, 903.162 536.616 C 898.061 546.777, 892.242 550, 890.098 543.851 C 889.494 542.119, 889 538.320, 889 535.410 C 889 532.499, 888.599 529.870, 888.109 529.567 C 887.096 528.941, 882.100 534.228, 877.053 541.268 C 875.174 543.890, 873.318 545.690, 872.931 545.268 C 872.544 544.845, 869.871 536.400, 866.992 526.500 C 862.257 510.221, 860.115 504.014, 860.030 506.327 M 1003 531 C 1001.550 532.450, 1001 534.333, 1001 537.845 C 1001 543.761, 1003.002 545.935, 1009.172 546.721 C 1014.482 547.397, 1017 548.615, 1017 550.510 C 1017 554.249, 1027.617 556.357, 1031.777 553.443 C 1034.549 551.502, 1034.769 546.171, 1032.209 543.010 C 1030.689 541.133, 1029.316 540.770, 1023.151 540.615 C 1015.457 540.421, 1014.045 539.592, 1014.015 535.250 C 1013.995 532.254, 1010.603 529, 1007.500 529 C 1006.125 529, 1004.100 529.900, 1003 531 M 1179.915 536.250 C 1178.303 538.038, 1176.076 540.539, 1174.967 541.810 C 1173.588 543.389, 1172.327 543.921, 1170.975 543.492 C 1167.512 542.393, 1168.835 544.823, 1173.866 548.800 C 1179.584 553.320, 1184.316 555.476, 1186.596 554.602 C 1187.944 554.084, 1188.112 553.054, 1187.565 548.671 C 1186.939 543.664, 1187.045 543.300, 1189.451 542.204 C 1192.822 540.669, 1192.668 538.740, 1188.923 535.589 C 1184.915 532.216, 1183.457 532.323, 1179.915 536.250 M 521.509 538.986 C 518.896 543.214, 539.836 571.085, 550.946 578.166 C 555.596 581.130, 560 581.894, 560 579.737 C 560 575.024, 531.816 543.183, 523.890 538.941 C 522.758 538.335, 521.901 538.351, 521.509 538.986 M 1076.667 546.667 C 1073.720 549.613, 1080.447 559.803, 1089.339 565.862 C 1095.117 569.799, 1098.010 570.273, 1105.568 568.521 C 1114.732 566.395, 1123.082 566.620, 1131.936 569.229 C 1137.962 571.004, 1142.042 571.462, 1152 571.477 C 1165.656 571.498, 1170.298 570.441, 1174.040 566.458 C 1177.359 562.925, 1175.671 561.617, 1169.560 562.987 C 1164.153 564.198, 1159.703 563.608, 1152.500 560.725 C 1148.300 559.043, 1143.979 558.601, 1125.500 557.960 C 1100.715 557.101, 1097.340 556.396, 1087.927 550.110 C 1082.195 546.282, 1078.256 545.078, 1076.667 546.667 M 1209 580.559 C 1201.275 582.563, 1180.072 593.236, 1176.620 596.859 C 1172.443 601.242, 1173.587 603.465, 1179.597 602.642 C 1189.392 601.299, 1214.994 590.984, 1220.250 586.262 C 1222.558 584.189, 1222.473 581.324, 1220.066 580.035 C 1217.598 578.715, 1215.775 578.801, 1209 580.559 M 502.978 603.786 C 498.032 608.733, 496.616 614.019, 497.516 624.183 C 498.119 630.989, 498 632, 496.598 632 C 495.712 632, 489.818 627.050, 483.500 621 C 471.880 609.873, 468 607.687, 468 612.268 C 468 617.281, 480.097 631.156, 492.617 640.504 C 506.423 650.812, 507.642 656.852, 496.816 661.322 C 490.686 663.853, 489.186 668.300, 486.491 691.937 C 482.679 725.379, 471.700 754.614, 453.095 780.865 C 448.795 786.934, 444.484 793.568, 443.516 795.608 C 441.813 799.196, 441.821 799.451, 443.770 803.409 C 447.715 811.420, 464.463 832, 467.037 832 C 468.674 832, 468.134 830.155, 464.365 822.872 C 460.915 816.207, 460.791 815.633, 461.933 811.673 C 462.595 809.378, 467.389 800.459, 472.586 791.853 C 490.948 761.446, 492.809 755.205, 496.985 710 C 498.914 689.133, 500.158 681.790, 502.188 679.297 C 502.727 678.635, 505.575 677.393, 508.517 676.538 C 520.168 673.151, 526.770 663.087, 529.029 645.274 C 530.299 635.255, 528.750 624.225, 524.974 616.411 C 521.624 609.474, 512.368 600, 508.942 600 C 507.745 600, 505.061 601.704, 502.978 603.786 M 1146.009 604.261 C 1146.004 605.229, 1146.914 610.179, 1148.031 615.261 C 1152.175 634.116, 1155.567 641.173, 1162.113 644.558 C 1163.694 645.376, 1169.714 646.414, 1175.490 646.864 C 1187.329 647.788, 1189.050 648.700, 1192.044 655.634 C 1193.026 657.908, 1195.503 667.133, 1197.549 676.134 C 1202.145 696.359, 1206.387 708.876, 1214.070 724.880 C 1230.847 759.832, 1253.108 788.085, 1278.296 806.394 C 1284.233 810.711, 1289.360 813.974, 1289.687 813.646 C 1290.015 813.318, 1289.513 809.170, 1288.571 804.429 C 1287.630 799.687, 1287.048 795.619, 1287.278 795.389 C 1287.509 795.158, 1289.298 797.564, 1291.256 800.735 C 1300.552 815.795, 1321.438 841, 1324.621 841 C 1327.466 841, 1325.778 835.748, 1317.662 819.349 C 1309.488 802.833, 1307.293 797.598, 1305.116 789.438 C 1303.715 784.186, 1294.852 774.353, 1285.771 767.975 C 1278.102 762.589, 1274.194 761.291, 1270.924 763.041 C 1268.910 764.119, 1268.784 764.716, 1269.379 770.357 C 1269.736 773.736, 1270.273 777.850, 1270.572 779.500 C 1271.100 782.413, 1270.981 782.355, 1266.464 777.500 C 1237.635 746.513, 1223.120 713.677, 1216.513 664.500 C 1213.736 643.826, 1213.025 642.863, 1198.392 639.947 C 1180.533 636.388, 1176.602 633.974, 1158.759 615.612 C 1150.851 607.474, 1146.014 603.168, 1146.009 604.261 M 507.872 616.654 C 503.940 621.393, 509.460 647, 514.414 647 C 518.022 647, 521.472 628.969, 519.005 623.011 C 517.641 619.718, 512.659 615, 510.546 615 C 509.830 615, 508.627 615.744, 507.872 616.654 M 1229.428 617.080 C 1224.717 622.285, 1228.784 632, 1235.674 632 C 1242.056 632, 1244.937 625.647, 1241.537 619.072 C 1239.157 614.469, 1232.745 613.414, 1229.428 617.080 M 854 616.650 C 851.564 617.623, 846.937 622.278, 845.313 625.389 C 844.484 626.977, 842.940 632.577, 841.883 637.831 C 839.980 647.295, 837.813 651.526, 835.352 650.582 C 833.040 649.694, 824.310 652.593, 818.968 656.021 C 815.146 658.473, 813.140 660.633, 811.607 663.946 C 809.576 668.336, 809.489 670.174, 809.180 715.116 L 808.861 761.731 797.180 762.276 C 790.751 762.576, 783.113 763.561, 780.190 764.467 C 774.678 766.176, 767.545 771.706, 766.466 775.108 C 765.619 777.777, 769.239 783.596, 778.532 794.500 C 786.089 803.369, 789.930 809.403, 788.762 810.572 C 788.434 810.900, 786.393 811.406, 784.227 811.696 C 779.682 812.306, 779.905 812.504, 773.051 801.813 C 767.369 792.951, 763.875 790.029, 761.409 792.076 C 759.307 793.820, 760.173 797.935, 763.927 804.036 C 768.211 810.999, 770.060 817.282, 771.123 828.500 C 772.259 840.486, 773.403 845.185, 776.478 850.501 C 779.120 855.068, 782.700 858.634, 783.669 857.664 C 784.031 857.303, 783.560 852.717, 782.623 847.473 C 780.836 837.468, 780.998 836, 783.885 836 C 787.539 836, 792 842.876, 792 848.508 C 792 853.144, 796.295 866.011, 800.008 872.500 C 803.660 878.882, 808.667 884, 811.258 884 C 813.112 884, 813.234 883.529, 812.743 878.250 C 812.449 875.087, 810.812 869.001, 809.104 864.724 C 807.397 860.447, 806 856.723, 806 856.448 C 806 856.173, 807.421 856.683, 809.157 857.581 C 814.193 860.185, 821.155 867.262, 827.485 876.209 C 835.845 888.026, 839.808 892, 843.234 892 C 848.910 892, 847.672 886.379, 840.119 877.847 C 837.854 875.287, 836 872.962, 836 872.679 C 836 872.396, 839.938 873.520, 844.750 875.177 C 855.340 878.822, 868.798 880.153, 870.790 877.754 C 874.407 873.395, 866.931 869.079, 852.191 867.014 C 844.878 865.990, 839 863.765, 839 862.021 C 839 860.623, 845.827 859.012, 851.782 859.006 C 857.327 859, 864 856.840, 864 855.051 C 864 851.015, 851.942 846.373, 843.927 847.322 C 841.320 847.631, 835.555 849.710, 831.116 851.942 C 826.677 854.174, 821.754 856, 820.177 856 C 817.410 856, 814 853.420, 814 851.326 C 814 849.398, 817.519 847.228, 823.353 845.559 C 829.993 843.659, 834 840.274, 834 836.565 C 834 832.987, 831.207 832.566, 816.976 834.002 C 804.949 835.216, 796.600 834.780, 795.423 832.876 C 794.405 831.229, 795.488 830.837, 803.559 829.932 C 811.392 829.053, 816 827.063, 816 824.559 C 816 821.381, 814.437 819.747, 808.624 816.845 C 801.988 813.533, 797 809.426, 797 807.273 C 797 805.064, 793.102 798.013, 787.346 789.812 C 784.378 785.584, 781.244 780.434, 780.380 778.368 C 778.918 774.869, 778.933 774.522, 780.597 773.306 C 783.476 771.200, 797.465 771.681, 804 774.109 C 807.025 775.233, 810.697 776.389, 812.161 776.677 C 817.300 777.689, 817.396 776.832, 818.113 723.500 C 818.894 665.452, 819.465 661.100, 826.475 659.760 C 836.323 657.878, 841.515 670.957, 842.649 700.500 C 843.292 717.227, 844.362 722.851, 845.402 714.960 C 845.726 712.507, 846.462 699.925, 847.040 687 C 849.321 635.945, 850.991 628.698, 860.988 626.503 C 867.013 625.179, 869.935 629.190, 872.579 642.411 C 873.489 646.962, 874.347 662.208, 874.975 685 C 875.990 721.833, 876.694 733, 878 733 C 879.535 733, 880.011 728.083, 880.566 706.500 C 881.420 673.232, 883.348 663.755, 889.807 661.080 C 894.545 659.117, 899.762 661.187, 901.687 665.793 C 903.884 671.052, 904.930 693.987, 904.967 737.750 C 904.985 758.788, 905.282 776, 905.627 776 C 905.972 776, 909.459 774.243, 913.377 772.095 C 927.762 764.208, 950 760.184, 950 765.467 C 950 766.200, 948.352 769.207, 946.338 772.150 C 937.422 785.177, 936.165 787.368, 935.056 791.802 C 932.030 803.907, 931.997 803.977, 927.980 806.512 C 922.230 810.143, 920.447 813.250, 921.984 816.962 C 924.448 822.909, 935.080 823.060, 941.239 817.237 C 943.399 815.195, 945.033 814.631, 948.960 814.573 C 956.184 814.467, 958.138 816.744, 958.927 826.186 C 959.609 834.345, 960.285 836, 962.938 836 C 966.302 836, 967.035 831.452, 966.761 812.296 C 966.532 796.312, 966.706 793.884, 968.192 792.390 C 969.783 790.789, 969.973 790.890, 971.396 794.094 C 972.229 795.967, 973.602 800.034, 974.448 803.131 C 978.238 817.002, 985.024 815.749, 984.984 801.185 C 984.964 793.659, 982.709 784.383, 980.109 781.126 C 974.440 774.023, 974.009 771.375, 975.441 752.443 C 976.299 741.104, 975.549 737, 972.620 737 C 969.670 737, 967.881 740.832, 967.069 748.887 C 966.620 753.344, 965.690 757.668, 965.004 758.495 C 963.417 760.407, 959.609 760.438, 958.044 758.553 C 957.383 757.757, 954.740 756.294, 952.171 755.303 C 946.225 753.008, 929.765 752.990, 922.730 755.270 C 918.035 756.792, 917.052 756.593, 914.866 753.679 C 914.792 753.580, 914.398 734.600, 913.990 711.500 C 913.522 685.015, 912.828 668.160, 912.111 665.873 C 910.603 661.063, 906.679 657.247, 900.130 654.223 C 895.706 652.180, 893.743 651.836, 888.977 652.268 C 885.419 652.591, 882.771 652.371, 882.096 651.696 C 881.493 651.093, 881 648.462, 881 645.849 C 881 629.735, 872.164 617.199, 860.225 616.376 C 857.626 616.197, 854.825 616.320, 854 616.650 M 1093 633.593 C 1093 635.116, 1099.082 644.728, 1101.456 646.959 C 1104.594 649.906, 1106.940 648.625, 1105.010 645.019 C 1102.483 640.297, 1093 631.275, 1093 633.593 M 1111.667 641.667 C 1110.526 642.807, 1110.937 661.767, 1112.161 664.453 C 1112.999 666.294, 1114.092 667, 1116.104 667 C 1123.453 667, 1124.035 655.163, 1117.197 644.750 C 1114.847 641.172, 1113.123 640.210, 1111.667 641.667 M 1081 642.540 C 1081 645.631, 1089.325 657, 1091.589 657 C 1094.431 657, 1092.874 653.023, 1087.900 647.581 C 1083.372 642.626, 1081 640.894, 1081 642.540 M 1024 657.040 C 1024 660.034, 1034.126 674.900, 1036.750 675.758 C 1039.052 676.511, 1038.041 672.450, 1034.430 666.441 C 1032.466 663.174, 1029.912 659.487, 1028.755 658.250 C 1026.560 655.902, 1024 655.251, 1024 657.040 M 1054.328 658.588 C 1053.206 661.511, 1054.755 679.392, 1056.508 683.750 C 1058.607 688.969, 1061.305 689.433, 1062.902 684.851 C 1065.313 677.936, 1063.430 664.853, 1059.322 659.971 C 1056.508 656.627, 1055.218 656.269, 1054.328 658.588 M 1078 661.304 C 1078 663.193, 1083.251 671.051, 1086.616 674.197 C 1089.958 677.322, 1095.855 680, 1099.395 680 C 1102.120 680, 1106 675.842, 1106 672.921 C 1106 669.001, 1101.845 666.099, 1094.637 664.986 C 1090.863 664.403, 1086.043 663.042, 1083.927 661.963 C 1079.426 659.667, 1078 659.508, 1078 661.304 M 1130.783 669.750 C 1127.844 673.120, 1126.714 676.447, 1126.714 681.735 C 1126.714 687.730, 1129.558 692, 1133.552 692 C 1137.241 692, 1138.458 689.388, 1138.389 681.615 C 1138.296 670.987, 1134.657 665.310, 1130.783 669.750 M 579.732 676.875 C 574.692 682.454, 571.535 688.364, 568.641 697.642 C 564.596 710.606, 562.667 726.411, 563.285 741.500 C 563.959 757.919, 566.572 771, 569.178 771 C 570.936 771, 574.153 761.867, 578.522 744.468 C 586.221 713.811, 589.637 687.436, 587.375 676.125 C 586.520 671.850, 584.053 672.092, 579.732 676.875 M 1020 674.356 C 1020 678.072, 1034.702 694.404, 1040.405 697.024 C 1046.219 699.695, 1048.957 698.172, 1048.985 692.250 C 1049.005 687.877, 1046.544 685.677, 1038.716 683.072 C 1035.126 681.877, 1029.651 679.122, 1026.550 676.950 C 1020.259 672.543, 1020 672.441, 1020 674.356 M 1113.333 684.575 C 1111.771 688.646, 1118.126 700, 1121.966 700 C 1126.986 700, 1127.259 690.967, 1122.393 685.888 C 1119.299 682.659, 1114.344 681.941, 1113.333 684.575 M 1068.053 688.750 C 1066.719 693.553, 1066.832 699.433, 1068.357 704.492 C 1070.852 712.772, 1076.363 708.286, 1076.267 698.055 C 1076.163 687.060, 1070.350 680.476, 1068.053 688.750 M 1003.418 687.403 C 1002.362 690.085, 1004.677 708.474, 1006.520 712.038 C 1007.362 713.667, 1008.738 715, 1009.577 715 C 1011.289 715, 1014 709.308, 1014 705.714 C 1014 701.025, 1010.957 693.284, 1007.601 689.436 C 1004.524 685.907, 1004.091 685.697, 1003.418 687.403 M 1142.636 692.640 C 1142.286 695.191, 1142 699.271, 1142 701.705 C 1142 709.115, 1140.886 710.200, 1134.072 709.429 C 1127.266 708.659, 1126.334 709.453, 1128.029 714.587 C 1128.672 716.538, 1128.932 718.401, 1128.606 718.728 C 1128.279 719.054, 1124.404 717.628, 1119.994 715.558 C 1115.584 713.489, 1111.306 712.052, 1110.488 712.366 C 1108.529 713.118, 1108.514 720.160, 1110.464 723.931 C 1111.269 725.488, 1113.390 727.992, 1115.176 729.495 C 1118.046 731.909, 1118.995 732.161, 1123.315 731.649 C 1129.815 730.879, 1135.954 727.154, 1144.846 718.582 C 1155.807 708.015, 1157.042 704.546, 1152.360 697.482 C 1149.369 692.969, 1144.961 688, 1143.949 688 C 1143.576 688, 1142.986 690.088, 1142.636 692.640 M 1099.836 692.134 C 1098.371 692.670, 1096.903 693.810, 1096.574 694.667 C 1095.204 698.239, 1104.743 708, 1109.604 708 C 1114.284 708, 1115.193 703.896, 1111.836 697.922 C 1110.110 694.852, 1104.627 690.676, 1102.849 691.079 C 1102.657 691.122, 1101.301 691.597, 1099.836 692.134 M 977.004 694.250 C 977.012 699.229, 982.616 705.048, 984.487 702.021 C 985.549 700.302, 980.030 692, 977.826 692 C 977.372 692, 977.002 693.013, 977.004 694.250 M 524.461 698.419 C 523.197 700.348, 522.883 702.683, 523.150 708.182 L 523.500 715.410 519.302 716.254 C 516.356 716.846, 514.906 717.722, 514.439 719.193 C 513.734 721.414, 516.788 731.986, 518.496 733.235 C 520.289 734.547, 527.702 734.064, 528.956 732.553 C 529.768 731.575, 529.937 729.346, 529.478 725.674 C 528.719 719.594, 529.634 717.089, 534.166 712.849 C 537.731 709.514, 537.936 704.690, 534.718 699.898 C 531.682 695.377, 526.906 694.688, 524.461 698.419 M 1043.200 705.200 C 1041.134 707.266, 1041.869 709.849, 1045.750 714.157 C 1054.089 723.415, 1064 723.774, 1064 714.818 C 1064 708.526, 1047.503 700.897, 1043.200 705.200 M 969.032 707.585 C 972.092 715.632, 980.775 725.860, 986.315 727.942 C 992.278 730.183, 1000 727.878, 1000 723.857 C 1000 720.680, 993.107 714.387, 988.225 713.108 C 985.901 712.498, 982.220 711.538, 980.045 710.973 C 977.870 710.409, 974.767 708.834, 973.151 707.473 C 969.249 704.190, 967.757 704.231, 969.032 707.585 M 1081.410 710.497 C 1079.238 713.812, 1079.777 726.205, 1082.198 728.626 C 1084.710 731.138, 1088.728 729.639, 1090.728 725.444 C 1092.174 722.411, 1092.229 721.306, 1091.137 717.220 C 1089.835 712.349, 1086.633 708, 1084.349 708 C 1083.632 708, 1082.310 709.124, 1081.410 710.497 M 713.197 724.750 C 713.565 735.923, 714.047 739.390, 715.769 743.250 C 719.056 750.619, 720.806 749.675, 725.038 738.250 C 727.751 730.928, 730.344 735.874, 734.565 756.424 C 735.913 762.982, 737.168 768.501, 737.355 768.688 C 737.541 768.875, 737.979 764.383, 738.326 758.705 C 739.021 747.353, 738.039 738.930, 735.428 733.825 C 733.606 730.265, 715.255 711, 713.685 711 C 713.120 711, 712.925 716.504, 713.197 724.750 M 1026.607 715.582 C 1026.273 716.452, 1026 721.802, 1026 727.471 C 1026 735.932, 1026.325 738.179, 1027.812 740.016 C 1031.718 744.840, 1037.989 738.487, 1037.996 729.700 C 1038.001 724.040, 1036.237 720.219, 1031.959 716.619 C 1028.351 713.583, 1027.442 713.407, 1026.607 715.582 M 1157.105 715.374 C 1156.431 716.186, 1155.519 720.426, 1155.078 724.796 C 1154.638 729.166, 1153.944 733.282, 1153.536 733.942 C 1153.054 734.722, 1151.505 734.923, 1149.101 734.517 C 1144.063 733.666, 1141.474 736.372, 1142.323 741.601 C 1144.118 752.663, 1154.919 751.024, 1163.635 738.369 C 1166.663 733.972, 1167.447 731.844, 1167.743 727.218 C 1168.233 719.580, 1165.826 714.629, 1161.415 714.199 C 1159.593 714.021, 1157.828 714.502, 1157.105 715.374 M 596.113 719.788 C 595.551 720.839, 590.821 734.254, 585.601 749.599 C 576.084 777.578, 571.921 788.313, 570.165 789.398 C 569.647 789.718, 568.665 787.027, 567.984 783.417 C 566.618 776.177, 565.925 776.158, 564.002 783.305 C 563.245 786.119, 562.340 787.740, 561.818 787.218 C 561.327 786.727, 560.514 774.665, 560.009 760.413 C 558.856 727.833, 557.499 720, 553.007 720 C 550.571 720, 546.742 726.464, 544.453 734.439 C 541.716 743.973, 542.905 761.921, 547.381 778.678 C 549.318 785.925, 551.599 796.853, 552.451 802.962 C 554.126 814.971, 554.527 840.619, 553.076 842.911 C 551.794 844.936, 550.186 838.639, 549.012 827 C 548.486 821.775, 547.577 812.689, 546.994 806.809 C 546.410 800.928, 545.066 793.598, 544.007 790.520 C 542.053 784.840, 538.528 779, 537.055 779 C 535.751 779, 532.282 787.979, 530.949 794.809 C 528.336 808.190, 531.488 822.110, 542.514 845.880 C 550.912 863.984, 554.021 874.733, 553.932 885.362 C 553.886 890.878, 553.585 892.856, 552.997 891.500 C 552.520 890.400, 549.584 882.975, 546.472 875 C 535.416 846.666, 527.728 835.803, 522.872 841.654 C 520.823 844.123, 521.151 858.206, 523.415 865 C 527.339 876.773, 533.617 887.202, 545.987 902.500 C 551.634 909.484, 560.019 927.037, 565.334 943 C 570.918 959.774, 571.182 961.403, 568.382 961.802 C 565.293 962.243, 560.597 954.647, 546.865 927 C 540.445 914.075, 534.483 902.600, 533.615 901.500 C 530.741 897.855, 529.869 901.373, 530.272 915 C 530.594 925.924, 530.999 928.383, 533.484 934.500 C 539.916 950.335, 551.601 965.500, 561.810 971.262 C 568.410 974.987, 572.415 978.876, 579.462 988.405 C 591.920 1005.251, 602.516 1028, 597.904 1028 C 595.314 1028, 590.180 1022.863, 576.614 1006.699 C 561.135 988.256, 544.493 969.715, 542.922 969.160 C 542.392 968.972, 542.820 970.997, 543.874 973.660 C 544.929 976.322, 548.361 985.025, 551.503 993 C 562.354 1020.545, 570.191 1032.543, 580.235 1036.986 C 582.584 1038.025, 588.554 1039.762, 593.503 1040.846 C 607.598 1043.933, 613.495 1046.636, 624.399 1055.007 C 628.922 1058.479, 632.580 1058.899, 633.484 1056.050 C 633.837 1054.939, 632.974 1051.276, 631.479 1047.539 C 627.220 1036.893, 626.919 1035.267, 626.007 1018 C 624.736 993.940, 619.012 966.804, 611.896 951.110 C 607.138 940.617, 606.493 943.050, 606.542 971.304 C 606.583 995.754, 607.775 1009.322, 610.615 1017.686 C 611.444 1020.128, 611.947 1022.886, 611.732 1023.813 C 611.177 1026.212, 603.582 1018.073, 598.724 1009.873 C 587.625 991.138, 586.963 971.480, 596.554 945.443 C 611.271 905.487, 614.063 893.858, 612.052 880.896 C 610.805 872.861, 608.293 866, 606.598 866 C 605.946 866, 604.894 868.476, 604.259 871.501 C 603.624 874.527, 601.228 881.164, 598.935 886.251 C 593.308 898.728, 588.853 912.530, 582.554 937 L 577.277 957.500 575.888 951.500 C 575.125 948.200, 574.518 941, 574.539 935.500 C 574.584 923.837, 575.226 921.717, 586.381 896.336 C 596.864 872.486, 601 860.198, 601 852.903 C 601 845.578, 599.783 845.315, 593.346 851.249 C 581.724 861.962, 572.519 881.794, 570.487 900.500 C 570.128 903.800, 569.275 907.850, 568.590 909.500 L 567.345 912.500 565.998 910 C 564.137 906.549, 563.530 893.581, 564.917 886.902 C 566.328 880.103, 570.537 871.045, 576.072 862.894 C 587.074 846.693, 601 807.110, 601 792.039 C 601 784.519, 599.356 783.756, 594.570 789.054 C 589.138 795.067, 580.852 813.342, 573.556 835.404 C 567.329 854.232, 563.943 862, 561.964 862 C 560.477 862, 559.739 855.284, 560.450 848.232 C 562.183 831.068, 566.933 817.753, 578.592 797.379 C 591.960 774.020, 599.360 753.214, 600.566 735.599 C 601.433 722.934, 599.018 714.360, 596.113 719.788 M 657 725.686 C 647.760 726.157, 636.627 728.091, 634.189 729.649 C 632.690 730.607, 631.987 731.895, 632.189 733.312 C 632.719 737.039, 638.632 738.274, 653 737.657 C 665.304 737.128, 669.333 736.432, 677.750 733.377 C 682.568 731.628, 683.560 728.526, 679.750 727.121 C 676.981 726.099, 664.421 725.307, 657 725.686 M 1056.200 726.200 C 1052.429 729.971, 1058.274 736.861, 1067.524 739.550 C 1074.041 741.444, 1078.323 740.548, 1078.818 737.187 C 1079.700 731.196, 1060.521 721.879, 1056.200 726.200 M 1093.985 729.029 C 1091.095 734.428, 1092.033 747.123, 1095.537 750.031 C 1097.717 751.840, 1101.490 749.886, 1103.565 745.875 C 1106.783 739.651, 1102.687 727, 1097.454 727 C 1096.083 727, 1094.609 727.862, 1093.985 729.029 M 1010.571 734.571 C 1008.557 736.586, 1008.551 741.914, 1010.561 744.783 C 1013.830 749.450, 1024.289 752.015, 1025.645 748.482 C 1026.603 745.987, 1024.055 741.306, 1019.411 737.025 C 1014.654 732.640, 1012.970 732.173, 1010.571 734.571 M 1121.546 739.857 C 1120.544 743.011, 1123.618 748.472, 1129.243 753.528 C 1134.616 758.359, 1138.359 759.889, 1140.905 758.296 C 1143.276 756.812, 1143.371 751.028, 1141.085 747.329 C 1138.672 743.424, 1131.321 738.987, 1126.104 738.287 C 1122.784 737.842, 1122.111 738.074, 1121.546 739.857 M 1041.298 742.750 C 1040.862 744.813, 1040.504 749.726, 1040.503 753.669 C 1040.500 759.883, 1040.823 761.183, 1042.924 763.419 C 1049.578 770.502, 1057.912 761.816, 1054.965 750.870 C 1053.634 745.927, 1047.330 739, 1044.163 739 C 1042.576 739, 1041.905 739.878, 1041.298 742.750 M 990.011 743.487 C 988.032 745.871, 989.644 749.517, 994.611 753.888 C 999.609 758.289, 1005.063 760.023, 1007.511 757.991 C 1009.462 756.372, 1009.420 750.045, 1007.439 747.217 C 1006.581 745.991, 1004.578 744.316, 1002.989 743.494 C 999.218 741.544, 991.627 741.540, 990.011 743.487 M 687.145 748.750 C 685.352 753.240, 684.173 759.809, 682.970 772 C 681.597 785.928, 679.620 795.811, 677.040 801.642 C 673.854 808.845, 671.591 807.018, 669.968 795.931 C 667.388 778.316, 666.799 775.381, 665.415 773.250 C 661.796 767.677, 659.056 772.787, 658.900 785.399 C 658.761 796.696, 658.153 798.429, 654.190 798.815 C 649.148 799.306, 640.424 796.355, 638.069 793.361 C 635.454 790.036, 634.551 786.574, 632.095 770.458 C 631.003 763.284, 629.641 756.185, 629.069 754.682 C 628.064 752.038, 625.485 750.182, 624.368 751.299 C 622.910 752.756, 621.853 762.075, 621.011 780.873 C 620.005 803.344, 618.956 808.837, 614.032 817.444 C 612.284 820.500, 611.304 823, 611.854 823 C 612.404 823, 617.928 818.527, 624.130 813.061 C 630.331 807.594, 636.431 802.572, 637.685 801.901 C 640.703 800.286, 645.565 802.464, 656.990 810.548 C 661.691 813.874, 666.105 816.947, 666.799 817.376 C 667.620 817.883, 670.761 815.733, 675.781 811.227 C 687.634 800.586, 688.728 800.260, 695 805.500 C 702.819 812.033, 705.048 809.049, 699.754 799.138 C 695.142 790.504, 693.991 784.794, 693.069 765.972 C 692.175 747.737, 690.034 741.513, 687.145 748.750 M 1072.003 752.503 C 1079.265 759.830, 1085.389 762.933, 1088.890 761.059 C 1090.249 760.331, 1091 758.954, 1091 757.187 C 1091 750.430, 1083.800 746, 1072.819 746 L 1065.558 746 1072.003 752.503 M 1166.500 748.796 C 1155.174 755.047, 1142 765.712, 1142 768.629 C 1142 770.501, 1144.203 770.801, 1147.592 769.391 C 1153.342 767, 1160.051 770.601, 1163.229 777.785 C 1164.848 781.444, 1165.085 783.454, 1164.540 788.877 C 1163.272 801.491, 1159.910 819.581, 1155.492 837.562 C 1151.084 855.507, 1148.869 862.345, 1147.114 863.429 C 1145.634 864.344, 1144.132 855.676, 1142.588 837.305 C 1141.538 824.822, 1140.601 818.885, 1139.165 815.641 C 1137.062 810.886, 1134.175 808.612, 1131.530 809.627 C 1127.307 811.247, 1123.233 826.704, 1124.453 836.472 C 1125.162 842.146, 1126.694 844.326, 1129.610 843.811 C 1131.900 843.406, 1133.489 848.709, 1134.979 861.729 C 1140.633 911.146, 1157.984 977.328, 1163.774 971.562 C 1164.173 971.165, 1164.789 959.963, 1165.143 946.670 C 1165.844 920.334, 1166.535 915.838, 1173.539 892 C 1180.518 868.253, 1182.084 862.457, 1184.482 851.500 C 1188.007 835.397, 1189.213 820.896, 1188.406 804.305 C 1188.022 796.414, 1187.553 790.114, 1187.362 790.304 C 1187.172 790.495, 1185.417 798.942, 1183.462 809.075 C 1176.820 843.501, 1159.492 904.040, 1156.763 902.353 C 1154.223 900.784, 1157.491 871.384, 1163.526 841.500 C 1169.897 809.954, 1170.336 806.153, 1170.450 781.500 C 1170.552 759.680, 1170.675 758.253, 1172.858 753.677 C 1175.175 748.818, 1175.147 745.985, 1172.781 746.018 C 1172.077 746.028, 1169.250 747.278, 1166.500 748.796 M 1108.313 747.786 C 1106.404 748.999, 1105 753.754, 1105 759 C 1105 761.678, 1104.538 765.084, 1103.974 766.567 C 1102.993 769.149, 1102.746 769.231, 1098.224 768.470 C 1095.626 768.033, 1091.475 767.636, 1089 767.588 C 1085.059 767.511, 1084.460 767.780, 1084.180 769.757 C 1083.972 771.220, 1084.911 773.065, 1086.853 775.007 C 1089.396 777.550, 1090.614 778, 1094.955 778 C 1101.370 778, 1105.616 776.244, 1111.042 771.347 C 1115.855 767.004, 1118 762.730, 1118 757.482 C 1118 750.111, 1112.816 744.922, 1108.313 747.786 M 411 756 C 409.900 757.100, 409 759.283, 409 760.851 C 409 764.656, 407.195 769.629, 404.242 773.955 C 397.852 783.318, 408.594 795.835, 415.289 786.827 C 417.051 784.457, 417.147 783.642, 416.142 779.649 C 414.751 774.126, 415.455 772, 418.673 772 C 422.643 772, 425.002 770.212, 424.985 767.215 C 424.967 763.732, 422.198 755.747, 420.673 754.777 C 418.370 753.312, 413.010 753.990, 411 756 M 1026.920 759.250 C 1026.875 759.388, 1026.313 761.525, 1025.670 764 C 1024.553 768.296, 1024.341 768.494, 1021 768.365 C 1019.075 768.291, 1014.974 767.897, 1011.887 767.490 C 1008.012 766.978, 1006.053 767.104, 1005.563 767.898 C 1004.725 769.253, 1008.797 782.166, 1010.398 783.235 C 1012.115 784.380, 1020.627 784.127, 1023.434 782.848 C 1024.824 782.215, 1026.256 780.752, 1026.616 779.598 C 1027.444 776.940, 1028.828 776.035, 1032.095 776.015 C 1037.397 775.984, 1039.591 769.977, 1036.490 763.980 C 1034.819 760.749, 1032.211 759, 1029.066 759 C 1027.930 759, 1026.964 759.112, 1026.920 759.250 M 1056.098 772.149 C 1055.494 773.881, 1054.994 776.694, 1054.986 778.399 C 1054.956 785.255, 1054.259 786.063, 1048.629 785.768 C 1043.636 785.507, 1043.491 785.577, 1043.168 788.408 C 1042.631 793.116, 1043.902 797.730, 1046.629 800.971 C 1050.935 806.089, 1056 804.315, 1056 797.688 C 1056 795.274, 1058.523 792.190, 1059.609 793.276 C 1060.949 794.616, 1066.411 791.415, 1069.086 787.722 C 1073.788 781.232, 1072.534 775.347, 1065.528 771.018 C 1060.583 767.961, 1057.426 768.340, 1056.098 772.149 M 721.315 771.992 C 718.574 773.115, 717 775.990, 717 779.875 C 717 784.429, 718.485 784.438, 722.074 779.906 L 725.324 775.803 726.627 778.151 C 730.822 785.716, 724.666 799.616, 718.050 797.516 C 716.456 797.010, 715.780 797.450, 715.001 799.498 C 713.670 802.998, 713.669 835, 715 835 C 715.550 835, 716 834.770, 716 834.489 C 716 833.218, 719.138 814.312, 719.608 812.750 C 720.478 809.860, 721.685 810.727, 724.411 816.196 C 727.301 821.996, 727.661 827.401, 725.551 833.316 C 723.783 838.274, 721.252 841, 718.416 841 C 715.633 841, 712.788 843.663, 713.214 845.871 C 713.816 848.998, 720.775 850.232, 740.750 850.755 C 751.337 851.032, 760 850.911, 760 850.486 C 760 850.062, 755.950 844.321, 751 837.729 C 745.289 830.124, 742 824.834, 742 823.256 C 742 821.626, 743.899 818.717, 747.500 814.827 C 755.055 806.667, 754.938 805.681, 744.917 792.895 C 736.375 781.995, 733.421 777.237, 734.524 776.157 C 734.893 775.796, 736.458 777.006, 738.002 778.848 C 741.298 782.779, 743.472 782.558, 746.884 777.943 C 751.129 772.201, 750.020 771.525, 735.988 771.298 C 729.119 771.188, 722.517 771.500, 721.315 771.992 M 926.667 771.667 C 925.440 772.894, 925.983 777.741, 927.487 778.989 C 928.336 779.694, 930.046 779.954, 931.472 779.596 C 934.402 778.861, 935.861 774.742, 933.989 772.487 C 932.741 770.983, 927.894 770.440, 926.667 771.667 M 951.689 778.750 C 938.594 799.319, 938.100 800.954, 945.401 799.585 C 950.456 798.636, 957.046 793.247, 960.227 787.461 C 964.485 779.713, 963.603 772, 958.458 772 C 956.498 772, 955.098 773.397, 951.689 778.750 M 1105.916 786.694 C 1100.273 790.987, 1095.471 795.063, 1095.244 795.750 C 1094.940 796.676, 1096.786 797, 1102.361 797 C 1108.882 797, 1110.264 797.323, 1112.694 799.418 C 1115.411 801.759, 1115.497 802.132, 1115.407 811.168 C 1115.229 829.030, 1103.686 873.344, 1099.500 872.235 C 1098.950 872.089, 1098.600 869.839, 1098.722 867.235 C 1098.845 864.631, 1099.066 854.850, 1099.213 845.500 C 1099.459 829.991, 1099.287 827.974, 1097.252 822.500 C 1094.226 814.357, 1089.833 810.552, 1086.152 812.885 C 1085.070 813.570, 1085.017 814.802, 1085.880 819.120 C 1087.804 828.742, 1089.036 850.800, 1089.674 887.055 L 1090.300 922.610 1084.900 925.343 C 1078.292 928.687, 1054.500 947.630, 1054.500 949.546 C 1054.500 950.308, 1060.912 958.793, 1068.750 968.402 C 1076.588 978.012, 1083 986.127, 1083 986.437 C 1083 986.747, 1079.063 987.006, 1074.250 987.014 C 1059.160 987.037, 1058.522 987.827, 1065.353 998.011 C 1072.297 1008.362, 1072.359 1011.122, 1065.681 1012.553 C 1053.715 1015.118, 1063.532 1015.970, 1113.090 1016.664 L 1158.680 1017.304 1159.887 1026.365 C 1160.550 1031.349, 1161.297 1035.631, 1161.547 1035.880 C 1162.641 1036.974, 1163.008 1034.733, 1163.216 1025.675 C 1163.515 1012.676, 1163.458 1012.624, 1148.470 1012.148 C 1139.259 1011.856, 1137 1011.497, 1137 1010.327 C 1137 1009.526, 1139.292 1005.120, 1142.093 1000.536 C 1144.894 995.953, 1147.029 991.389, 1146.838 990.395 C 1146.376 987.999, 1143.178 987.220, 1133.309 987.100 C 1128.804 987.045, 1124.873 986.603, 1124.573 986.118 C 1124.273 985.632, 1124.921 984.099, 1126.014 982.710 C 1128.727 979.261, 1128.494 975.377, 1125.242 969.794 C 1122.908 965.789, 1108.947 948.512, 1096.776 934.566 L 1093.342 930.632 1103.849 911.793 C 1109.627 901.432, 1114.655 893.303, 1115.022 893.728 C 1115.388 894.152, 1116.995 897.650, 1118.593 901.500 C 1121.442 908.363, 1129.183 918, 1131.848 918 C 1133.906 918, 1134.391 914.906, 1133.085 910.096 C 1132.398 907.568, 1131.437 901.355, 1130.948 896.288 C 1129.681 883.166, 1126.320 876, 1121.432 876 C 1119.908 876, 1117.219 878.188, 1113.155 882.734 C 1109.844 886.438, 1106.831 889.165, 1106.460 888.793 C 1106.089 888.422, 1107.845 880.779, 1110.364 871.809 C 1115.823 852.366, 1118.553 834.517, 1120.117 808.058 C 1121.348 787.228, 1120.751 779.768, 1117.808 779.202 C 1116.911 779.029, 1111.559 782.400, 1105.916 786.694 M 793.035 781.934 C 790.391 786.876, 793.580 792, 799.300 792 C 805.371 792, 806.704 788.178, 802.411 783.077 C 799.340 779.427, 794.681 778.859, 793.035 781.934 M 1019.250 791.630 C 1017.550 792.360, 1017.673 797.467, 1019.474 800.949 C 1021.286 804.453, 1028.634 810.870, 1031.723 811.645 C 1036.828 812.927, 1043 809.123, 1043 804.696 C 1043 800.049, 1032.672 792.944, 1024 791.626 C 1022.075 791.333, 1019.938 791.335, 1019.250 791.630 M 1220.343 794.566 C 1218.268 796.641, 1217.896 797.743, 1218.400 800.316 C 1219.175 804.274, 1221.874 808.036, 1225.347 810 C 1227.705 811.333, 1228.295 811.333, 1230.653 810 C 1232.112 809.175, 1234.233 807.251, 1235.367 805.725 C 1237.423 802.957, 1237.423 802.941, 1235.468 799.311 C 1233.291 795.268, 1228.714 792.009, 1225.205 792.004 C 1223.942 792.002, 1221.754 793.155, 1220.343 794.566 M 729.073 795.635 C 724.308 801.692, 727.150 814.162, 733.935 816.973 C 737.767 818.560, 740.010 817.725, 742.750 813.690 C 745.845 809.132, 745.738 803.388, 742.475 798.966 C 737.789 792.614, 732.485 791.296, 729.073 795.635 M 1055.256 809.281 C 1046.893 814.351, 1040.039 818.773, 1040.025 819.106 C 1040.011 819.440, 1043.598 820.013, 1047.995 820.379 C 1057.168 821.144, 1060.782 822.268, 1061.692 824.640 C 1062.044 825.558, 1061.316 830.817, 1060.073 836.327 C 1057.616 847.225, 1045.155 886.488, 1044.395 885.728 C 1044.137 885.471, 1043.231 879.262, 1042.380 871.931 C 1039.623 848.168, 1035.286 835.023, 1026.762 824.595 C 1024.471 821.793, 1022.462 819.313, 1022.298 819.083 C 1022.134 818.854, 1021.765 818.902, 1021.478 819.189 C 1021.191 819.476, 1021.629 822.588, 1022.451 826.105 C 1023.273 829.622, 1025.093 841.725, 1026.495 853 C 1034.402 916.574, 1036.535 928.936, 1041.448 939.667 C 1045.805 949.185, 1049.161 945.495, 1056.149 923.500 C 1064.863 896.074, 1067.787 893.810, 1072.136 911.121 C 1076.100 926.902, 1079.515 929.344, 1081.309 917.681 C 1082.584 909.393, 1078.138 884.138, 1074.820 880.820 C 1070.916 876.916, 1064.903 881.518, 1059.303 892.699 C 1055.218 900.853, 1051.903 904.560, 1049.516 903.644 C 1048.112 903.106, 1048.094 902.719, 1049.360 900.268 C 1056.230 886.967, 1074.519 804.119, 1071.297 800.897 C 1070.837 800.437, 1063.619 804.210, 1055.256 809.281 M 944.500 820.587 C 938.337 826.858, 935.999 828.150, 932.192 827.388 C 930.539 827.058, 926.641 827.544, 923.409 828.484 C 917.055 830.331, 898.414 838.747, 899.117 839.451 C 899.358 839.692, 903.585 840.389, 908.510 841.001 C 917.747 842.149, 922.054 843.583, 922.757 845.744 C 923.333 847.511, 919.159 848.847, 909.698 849.923 C 899.663 851.064, 894.236 853.310, 886.750 859.418 C 881.006 864.105, 879.447 867.042, 882.750 866.952 C 883.712 866.926, 889.581 865.423, 895.790 863.612 C 902 861.801, 906.725 860.623, 906.290 860.994 C 905.856 861.364, 900.550 865.453, 894.500 870.079 C 880.970 880.425, 868.163 892.502, 867.370 895.664 C 866.485 899.188, 868.735 901.305, 872.685 900.664 C 877.522 899.879, 885.102 894.435, 897.880 882.568 C 908.598 872.615, 911.888 870.243, 910.707 873.321 C 908.850 878.160, 905 891.431, 905 892.993 C 905 895.480, 906.539 896.333, 909.630 895.557 C 913.140 894.676, 915.556 888.680, 917.418 876.228 C 919.358 863.254, 921.824 857.563, 928.173 851.408 L 933.237 846.500 932.607 851.500 C 930.906 865.002, 930.801 867.760, 931.911 869.834 C 932.549 871.025, 933.774 872, 934.634 872 C 937.428 872, 941.931 865.964, 943.906 859.570 C 946.821 850.131, 950.136 828.881, 949.799 821.790 L 949.500 815.500 944.500 820.587 M 683.898 827.258 C 679.415 830.237, 676 837.109, 676 843.153 C 676 849.640, 677.644 850.114, 680.061 844.324 C 684.983 832.530, 686.151 831.387, 692.750 831.900 C 696.655 832.204, 696.904 830.813, 693.545 827.455 C 690.500 824.409, 688.254 824.363, 683.898 827.258 M 637.455 832.455 C 635.123 834.786, 635 835.507, 635 846.815 C 635 859.957, 635.811 868, 637.136 868 C 637.611 868, 638.020 864.513, 638.044 860.250 C 638.113 848.107, 639.546 838.159, 641.545 835.951 C 644.485 832.701, 653.923 834.119, 656.071 838.133 C 657.469 840.745, 658.848 839.656, 658.231 836.427 C 657.480 832.497, 652.626 830.008, 645.705 830.004 C 640.882 830.001, 639.497 830.412, 637.455 832.455 M 731.216 832.453 C 728.996 835.275, 726.388 843.721, 727.418 844.751 C 727.799 845.132, 731.458 845.444, 735.548 845.444 C 747.440 845.444, 748.974 841.918, 740.484 834.092 C 735.338 829.348, 733.863 829.087, 731.216 832.453 M 978.366 834.919 C 971.198 839.289, 966 849.971, 966 860.329 C 966 869.059, 968.085 875.362, 976.095 890.853 C 987.086 912.107, 986.027 912.254, 964.892 892.398 C 957.072 885.051, 950.593 880.722, 945.729 879.594 C 943.558 879.091, 942.393 879.516, 940.350 881.559 C 937.937 883.972, 937.779 884.663, 938.224 890.833 C 938.827 899.198, 942.172 906.061, 948.485 911.880 C 954.974 917.861, 961.910 920.756, 973.723 922.414 C 985.706 924.095, 990 925.980, 990 929.559 C 990 934.969, 998.964 948, 1002.685 948 C 1003.482 948, 1005.566 946.926, 1007.317 945.614 C 1009.068 944.302, 1012.383 942.283, 1014.684 941.128 C 1024.307 936.296, 1024.533 928.329, 1015.353 917.570 C 1011.488 913.040, 1011.230 910.982, 1013.969 906.550 C 1016.932 901.756, 1018.969 891.574, 1018.985 881.473 C 1019.002 871.494, 1017.878 868.688, 1013.417 867.569 C 1007.422 866.064, 1004.597 871.296, 999.956 892.500 C 997.550 903.494, 995.612 909, 994.149 909 C 991.341 909, 990.084 895.842, 992.048 887 C 993.648 879.797, 995.143 876.896, 997.769 875.898 C 1000.484 874.866, 1000.457 873.955, 997.480 866 C 996.251 862.717, 995.949 859.800, 996.363 855.216 C 996.830 850.046, 996.627 848.671, 995.216 847.466 C 989.738 842.786, 989 841.800, 989 839.155 C 989 835.957, 986.316 832.998, 983.421 833.004 C 982.365 833.006, 980.090 833.867, 978.366 834.919 M 1240.547 835.923 C 1239.644 837.385, 1247.760 843.401, 1256.596 847.819 C 1275.262 857.153, 1302.670 867, 1309.982 867 C 1313.510 867, 1314 866.719, 1314 864.696 C 1314 861.929, 1309.048 856.988, 1303.500 854.220 C 1297.877 851.414, 1274.684 843.779, 1257.328 839.020 C 1241.127 834.578, 1241.353 834.619, 1240.547 835.923 M 710.605 860.588 C 709.648 863.081, 709.902 884.821, 710.895 885.435 C 712.492 886.422, 713 883.051, 713 871.477 C 713 860.972, 712.074 856.760, 710.605 860.588 M 675.675 867.797 C 675.837 870.934, 676.282 882.050, 676.663 892.500 C 677.433 913.584, 678.127 912.675, 679.895 888.272 C 681.338 868.355, 681.805 867.688, 695.846 865.476 C 702.814 864.379, 699.383 863.299, 686.940 862.674 L 675.379 862.094 675.675 867.797 M 399.730 867.603 C 399.329 868.005, 399 868.689, 399 869.125 C 399 870.492, 407.258 874.726, 413.225 876.418 C 420.598 878.508, 437.077 880.991, 443.500 880.979 C 453.917 880.959, 453.411 876.837, 442.555 873.274 C 432.628 870.016, 401.446 865.887, 399.730 867.603 M 766.500 871.680 C 755.519 874.140, 747.801 879.021, 744.945 885.312 C 743.355 888.815, 743.040 891.922, 743.022 904.309 C 742.998 920.190, 744.289 923.190, 745.445 909.941 C 746.769 894.763, 750.381 885.406, 756.047 882.476 C 759.960 880.452, 761.899 880.608, 768.129 883.449 C 771.083 884.796, 776.588 886.388, 780.362 886.986 C 787.273 888.082, 799.825 887.374, 798.314 885.974 C 797.866 885.559, 793.696 884.463, 789.046 883.538 C 779.141 881.568, 773.598 879.460, 774.496 878.007 C 774.848 877.437, 776.905 876.069, 779.068 874.965 C 781.231 873.862, 783 872.518, 783 871.980 C 783 871.014, 770.489 870.786, 766.500 871.680 M 690.773 880.750 C 688.479 883.363, 687.761 886.624, 688.507 891.042 C 689.327 895.893, 690.527 896.069, 692.389 891.610 C 693.168 889.746, 695.416 886.438, 697.385 884.259 C 699.353 882.080, 700.672 880.005, 700.315 879.649 C 698.933 878.266, 692.280 879.034, 690.773 880.750 M 1255.589 896.250 C 1258.342 909.083, 1257.363 914.363, 1250.460 923.898 C 1247.393 928.135, 1247.215 934.674, 1250.001 940.813 C 1251.805 944.787, 1274.223 969, 1276.099 969 C 1276.522 969, 1275.309 964.388, 1273.403 958.750 C 1268.909 945.452, 1268.819 941.498, 1272.874 935.376 C 1277.172 928.888, 1277.256 921.159, 1273.126 912.427 C 1270.500 906.878, 1256.884 890, 1255.033 890 C 1254.601 890, 1254.851 892.813, 1255.589 896.250 M 759.931 902.682 C 758.384 906.752, 759.138 916.500, 761 916.500 C 763.076 916.500, 766.528 906.239, 765.641 902.705 C 764.727 899.062, 761.312 899.048, 759.931 902.682 M 1208.455 902.455 C 1205.289 905.620, 1205.354 908.841, 1208.703 914.841 L 1211.407 919.682 1208.203 924.038 C 1206.441 926.434, 1205 928.946, 1205 929.620 C 1205 930.295, 1206.165 932.231, 1207.589 933.923 C 1209.504 936.199, 1211.026 937, 1213.434 937 C 1219.438 937, 1221.598 932.022, 1219.812 922.300 C 1218.567 915.524, 1219.466 913, 1223.122 913 C 1227.194 913, 1223.383 905.636, 1217.397 901.936 C 1213.271 899.386, 1211.415 899.494, 1208.455 902.455 M 797.667 902.667 C 796.691 903.642, 796.881 913.264, 797.908 914.885 C 799.920 918.062, 802.116 908.072, 800.393 903.582 C 799.749 901.903, 798.762 901.572, 797.667 902.667 M 689.585 905.906 C 687.445 908.270, 687.812 913.868, 690.205 915.366 C 692.534 916.824, 697 912.657, 697 909.026 C 697 904.138, 692.789 902.366, 689.585 905.906 M 714.688 905.792 C 712.061 908.695, 712.629 917, 715.455 917 C 717.148 917, 720.255 909.840, 719.838 906.902 C 719.412 903.899, 716.892 903.356, 714.688 905.792 M 628.625 906.862 C 621.195 915.072, 626.595 933.021, 645.107 961.647 C 654.302 975.865, 662.473 991.382, 664.581 998.631 C 666.066 1003.740, 666.733 1014.601, 665.628 1015.705 C 663.588 1017.745, 659.428 1009.568, 655.604 996 C 650.655 978.441, 638.162 956.790, 633.807 958.227 C 630.947 959.171, 629.906 963.403, 630.249 972.697 C 630.572 981.453, 630.834 982.389, 635.713 992.197 C 641.690 1004.212, 647.882 1012.715, 657.977 1022.771 L 665.232 1029.997 663.472 1032.748 C 662.504 1034.262, 658.605 1038.543, 654.808 1042.262 C 647.229 1049.685, 642.005 1058.958, 641.997 1065 C 641.989 1070.859, 638.942 1074.549, 632.026 1077.071 C 628.674 1078.293, 626.094 1079.790, 626.293 1080.397 C 626.491 1081.003, 628.869 1082.069, 631.577 1082.765 C 643.391 1085.801, 650.060 1080.990, 658.518 1063.331 C 661.502 1057.099, 664.163 1052, 664.430 1052 C 664.697 1052, 665.853 1055.150, 667 1059 C 669.071 1065.953, 671.041 1067.834, 672.497 1064.250 C 674.303 1059.807, 675.157 1055.896, 675.976 1048.337 C 677.150 1037.488, 680.885 1029.635, 694.411 1009.578 C 706.372 991.842, 710.750 983.759, 714.611 972.283 C 719.166 958.743, 717.944 948, 711.848 948 C 709.069 948, 702.570 954.382, 698.032 961.567 C 689.872 974.487, 685.381 987.544, 683.955 1002.490 C 682.874 1013.811, 680.838 1020.931, 677.928 1023.566 C 670.856 1029.965, 670.809 1007.984, 677.849 986.500 C 678.931 983.200, 681.487 976, 683.530 970.500 C 690.376 952.069, 689.321 936.503, 680.329 923.261 C 676.305 917.336, 671.624 913.993, 667.382 914.015 C 663.941 914.034, 662.681 914.775, 661.150 917.684 C 659.123 921.535, 659.889 927.415, 665.059 947.675 C 670.470 968.882, 672.417 982.609, 669.905 981.840 C 667.353 981.059, 664.020 972.582, 660.103 956.912 C 654.329 933.810, 646.295 917.016, 637.001 908.619 C 632.459 904.517, 631.021 904.215, 628.625 906.862 M 390.046 912.871 C 388.774 913.745, 388.774 914.212, 390.046 916.598 C 393.261 922.631, 399.910 924.808, 418.679 925.976 C 430.502 926.711, 432.814 927.156, 437.813 929.656 C 444.368 932.934, 446.303 935.833, 444.804 940.132 C 443.270 944.532, 444.344 950.646, 448.294 960 C 453.298 971.853, 457.048 985.384, 457.340 992.638 C 457.619 999.597, 458.881 1001.913, 468.871 1013.793 C 482.347 1029.820, 482.344 1036.023, 468.863 1037.299 C 458.070 1038.320, 453.699 1042.812, 453.789 1052.792 C 453.884 1063.390, 465.884 1083, 472.274 1083 C 475.708 1083, 477.495 1081.035, 479.470 1075.090 C 482.766 1065.167, 485.316 1065.920, 490.999 1078.497 C 495.756 1089.026, 497.626 1091.126, 503.812 1092.889 C 508.618 1094.258, 515.322 1099.788, 517.661 1104.311 C 518.893 1106.694, 518.958 1107.710, 517.994 1109.511 C 517.097 1111.186, 517.078 1112.278, 517.919 1113.848 C 520.396 1118.477, 530.521 1129.637, 552.986 1152.500 C 585.105 1185.188, 590.167 1192.008, 601.975 1218.500 L 608.662 1233.500 622.581 1233.807 C 638.599 1234.160, 645.997 1233.488, 648.638 1231.441 C 650.434 1230.050, 650.416 1229.927, 648.124 1227.987 C 645.737 1225.966, 644.768 1225.643, 637.636 1224.491 C 631.878 1223.561, 626.119 1217.090, 613.614 1197.500 C 593.643 1166.214, 584.407 1155.546, 558.893 1134.293 C 543.596 1121.551, 535.194 1113.241, 532.755 1108.442 C 531.933 1106.824, 530.946 1103.344, 530.562 1100.708 C 529.686 1094.688, 525.901 1090.205, 516.732 1084.329 C 509.427 1079.646, 506.013 1075.248, 505.998 1070.500 C 505.993 1068.850, 505.504 1065.755, 504.912 1063.622 C 503.931 1060.087, 502.843 1058.734, 496.803 1053.531 C 495.023 1051.997, 494.901 1051.039, 495.524 1043.553 C 496.336 1033.802, 495.332 1030.848, 487.021 1018.531 C 480.533 1008.917, 479 1005.272, 479 999.466 C 479 993.987, 478.062 992.030, 472.400 985.702 C 467.656 980.398, 464.003 971.929, 463.994 966.212 C 463.986 960.556, 462.088 954.836, 460.043 954.301 C 457.707 953.690, 456.002 949.861, 455.992 945.203 C 455.978 937.966, 453.883 928.474, 451.501 924.848 C 448.344 920.044, 440.811 916.455, 429.964 914.589 C 418.919 912.689, 391.998 911.530, 390.046 912.871 M 836.500 920.509 C 798.406 925.900, 764.763 942.638, 736.140 970.438 C 718.394 987.674, 706.298 1004.248, 695.956 1025.500 C 675.164 1068.225, 671.523 1113.512, 685.088 1160.674 C 695.198 1195.822, 714.551 1225.908, 742.312 1249.634 C 772.809 1275.698, 804.354 1289.770, 841.898 1294.058 C 857.641 1295.856, 889.691 1294.804, 903.500 1292.036 C 937.652 1285.191, 965.612 1270.415, 989.592 1246.540 C 996.243 1239.918, 1002.686 1233.037, 1003.911 1231.250 L 1006.136 1228 1003.306 1228 C 1001.749 1228, 993.956 1231.192, 985.988 1235.093 C 967.106 1244.338, 959.741 1247.222, 947 1250.363 C 926.436 1255.434, 907.673 1255.942, 886.894 1251.991 C 831.008 1241.366, 787.211 1197.784, 773.344 1139 C 770.275 1125.987, 769.081 1100.850, 770.918 1087.892 C 775.716 1054.038, 790.154 1024.695, 813.440 1001.468 C 849.562 965.438, 898.306 951.631, 947 963.637 C 959.741 966.778, 967.106 969.662, 985.988 978.907 C 993.956 982.808, 1001.749 986, 1003.306 986 L 1006.136 986 1003.911 982.750 C 1002.686 980.962, 996.243 974.082, 989.592 967.460 C 965.623 943.595, 937.752 928.861, 903.500 921.948 C 889.292 919.080, 852.218 918.284, 836.500 920.509 M 725.250 925.031 C 722.770 926.028, 722.313 928.194, 724.250 929.775 C 724.938 930.336, 730.900 930.968, 737.500 931.180 C 748.068 931.519, 750.238 931.902, 755.682 934.389 C 759.082 935.941, 762.351 937.050, 762.946 936.851 C 765.254 936.082, 757.977 929.153, 753.241 927.611 C 743.509 924.442, 729.849 923.183, 725.250 925.031 M 1300.563 925.898 C 1299.473 927.662, 1297.832 952.500, 1298.469 957.600 C 1299.640 966.968, 1303.356 967.915, 1309.863 960.503 C 1313.653 956.187, 1313.803 953.477, 1310.500 949 C 1307.519 944.960, 1307.382 943.070, 1309.841 939.885 C 1310.854 938.573, 1311.944 936.457, 1312.265 935.182 C 1313.031 932.136, 1311.263 927.211, 1308.961 925.979 C 1306.669 924.752, 1301.303 924.701, 1300.563 925.898 M 696.246 931.250 C 696.695 932.609, 708.732 933.535, 712.770 932.522 C 717.616 931.305, 713.520 930, 704.858 930 C 698.085 930, 695.936 930.312, 696.246 931.250 M 848 931.040 C 826.302 933.697, 806.790 939.504, 787.500 949.047 C 769.078 958.159, 757.215 966.743, 741.987 981.980 C 714.317 1009.664, 699.594 1037.611, 692.718 1075.500 C 689.793 1091.619, 689.572 1126.618, 692.308 1140.500 C 703.420 1196.887, 736.791 1240.039, 789.182 1265.765 C 822.255 1282.006, 861.674 1287.655, 899 1281.503 C 916.324 1278.647, 935.261 1272.070, 938.893 1267.648 C 940.816 1265.306, 940.294 1265.136, 934 1266.053 C 918.099 1268.369, 895.030 1266.577, 874.827 1261.456 C 853.310 1256.002, 833.149 1245.850, 815.167 1231.415 C 789.410 1210.739, 769.513 1176.389, 761.927 1139.500 C 759.303 1126.741, 758.221 1096.515, 759.923 1083.487 C 763.452 1056.466, 774.073 1030.034, 788.849 1011.500 C 800.218 997.240, 819.853 979.338, 835.846 968.653 C 859.111 953.108, 904.175 943.602, 934 947.947 C 940.294 948.864, 940.816 948.694, 938.893 946.352 C 935.275 941.947, 916.444 935.394, 899 932.471 C 887.660 930.571, 858.509 929.753, 848 931.040 M 1077.156 939.446 C 1072.397 944.610, 1071.886 947.535, 1075.459 949.163 C 1080.391 951.410, 1084.918 945.356, 1083.837 937.959 C 1083.295 934.258, 1081.588 934.638, 1077.156 939.446 M 1089.975 945.565 C 1087.462 952.176, 1089.881 960.725, 1095.190 963.995 C 1101.921 968.140, 1114.030 970.812, 1113.991 968.143 C 1113.928 963.833, 1096.277 943, 1092.687 943 C 1091.732 943, 1090.512 944.154, 1089.975 945.565 M 1232.525 963.750 C 1230.968 970.212, 1229.486 979.616, 1229.232 984.646 C 1228.669 995.814, 1230.280 1001.452, 1236.408 1009.748 C 1241.459 1016.588, 1263.104 1040.230, 1263.735 1039.598 C 1263.978 1039.356, 1261.280 1032.935, 1257.740 1025.329 C 1247.956 1004.306, 1243.934 991.530, 1239.460 967.250 C 1237.914 958.862, 1236.358 952, 1236.003 952 C 1235.648 952, 1234.083 957.288, 1232.525 963.750 M 1069.230 955.837 C 1067.334 957.040, 1072.410 963.606, 1085.078 976.337 C 1092.003 983.295, 1096.475 987.053, 1097.574 986.837 C 1103.332 985.704, 1100.364 976.874, 1093.045 973.363 C 1087.480 970.692, 1084 966.736, 1084 963.079 C 1084 961.534, 1083.067 959.084, 1081.927 957.635 C 1080.212 955.454, 1079.049 955.003, 1075.177 955.015 C 1072.605 955.024, 1069.928 955.393, 1069.230 955.837 M 416.305 965.499 C 415.127 966.324, 413.177 968.596, 411.971 970.547 C 409.868 973.950, 409.850 974.177, 411.544 976.048 C 412.515 977.122, 413.883 978, 414.582 978 C 415.282 978, 416.767 979.160, 417.883 980.578 C 419.600 982.761, 419.823 984.101, 419.339 989.328 C 418.842 994.697, 419.033 995.739, 420.806 997.335 C 423.757 999.991, 430.355 1000.653, 433.479 998.606 C 437.146 996.203, 436.804 992.151, 432.500 987 C 429.428 983.323, 429 982.135, 429 977.288 C 429 972.205, 428.690 971.455, 425.118 967.882 C 420.858 963.622, 419.506 963.257, 416.305 965.499 M 1107.571 977.571 C 1105.536 979.607, 1105.548 983.889, 1107.591 984.673 C 1109.574 985.434, 1115.860 982.528, 1116.643 980.489 C 1118.116 976.650, 1110.834 974.309, 1107.571 977.571 M 398.094 979.750 C 393.610 983.948, 393.389 986.234, 397.062 990.418 C 401.274 995.215, 404.714 995.229, 408.896 990.465 C 410.603 988.521, 412 986.226, 412 985.365 C 412 983.076, 405.547 977, 403.116 977 C 401.969 977, 399.710 978.237, 398.094 979.750 M 1206.832 987.750 C 1203.176 991.705, 1196.503 1000.965, 1194.616 1004.700 C 1192.056 1009.769, 1192.656 1019.189, 1196.941 1041.230 C 1200.809 1061.123, 1202.863 1075.881, 1202.217 1079.151 C 1201.788 1081.325, 1196.938 1083.277, 1193.904 1082.498 C 1189.352 1081.328, 1187.733 1079.062, 1184.115 1068.796 C 1180.124 1057.474, 1178.603 1056.230, 1175.799 1062 C 1173.403 1066.931, 1172.176 1076.005, 1171.407 1094.500 C 1171.023 1103.731, 1170.191 1111.854, 1169.442 1113.702 C 1168.441 1116.167, 1166.547 1117.706, 1161.207 1120.396 C 1146.291 1127.907, 1144.856 1136.562, 1157.533 1142.559 C 1165.155 1146.165, 1165.640 1148.143, 1164.100 1169.352 C 1162.952 1185.169, 1163.221 1191, 1165.100 1191 C 1165.585 1191, 1168.078 1189.401, 1170.638 1187.447 C 1173.442 1185.306, 1175.656 1184.256, 1176.205 1184.805 C 1177.214 1185.814, 1175.192 1191.890, 1169.650 1204.500 C 1167.717 1208.900, 1165.429 1215.969, 1164.567 1220.208 C 1162.893 1228.441, 1162.432 1244, 1163.861 1244 C 1164.335 1244, 1166.172 1240.513, 1167.944 1236.250 C 1171.936 1226.645, 1177.393 1216.546, 1185.746 1203.305 C 1194.385 1189.611, 1197.018 1181.241, 1196.944 1167.712 C 1196.881 1156.441, 1195.483 1150.713, 1192.661 1150.172 C 1190.403 1149.739, 1186.569 1153.216, 1183.725 1158.276 C 1180.790 1163.497, 1178.728 1162.818, 1177.613 1156.263 C 1176.689 1150.828, 1179.048 1119.536, 1181.105 1109.945 C 1182.566 1103.132, 1183.588 1102.621, 1189.898 1105.544 C 1196.806 1108.745, 1201.005 1108.708, 1204.921 1105.413 C 1207.932 1102.880, 1209.245 1099.541, 1213.020 1084.821 C 1214.627 1078.556, 1217.256 1076.351, 1223.824 1075.759 C 1233.147 1074.919, 1237.996 1069.137, 1237.998 1058.855 C 1238 1051.783, 1234.749 1041.043, 1231.401 1037.065 C 1228.246 1033.315, 1222.524 1031.666, 1215.648 1032.525 C 1211.117 1033.091, 1210.217 1032.896, 1208.483 1030.979 C 1206.760 1029.073, 1206.506 1027.388, 1206.544 1018.143 C 1206.582 1008.825, 1206.986 1006.347, 1209.794 998.235 C 1211.557 993.139, 1213 988.077, 1213 986.985 C 1213 984.098, 1209.847 984.489, 1206.832 987.750 M 1069.547 994.250 C 1069.921 995.487, 1071.639 999.199, 1073.364 1002.498 C 1077.836 1011.051, 1078.936 1011.434, 1100.205 1011.830 C 1120.754 1012.214, 1127.460 1011.217, 1131.298 1007.210 C 1134.054 1004.331, 1138.533 995.199, 1137.630 994.297 C 1136.700 993.366, 1109.304 992.111, 1088.683 992.055 L 1068.865 992 1069.547 994.250 M 981.230 1015.750 C 978.006 1020.013, 970.534 1030.310, 964.625 1038.634 C 952.610 1055.556, 946.343 1062.625, 942.497 1063.590 C 940.778 1064.021, 932.904 1062.344, 919.200 1058.626 C 894.764 1051.997, 884.124 1049.542, 883.318 1050.349 C 882.206 1051.460, 885.268 1057.040, 893.690 1069.255 C 917.084 1103.182, 917.430 1103.761, 916.066 1106.756 C 915.379 1108.265, 909.533 1117.375, 903.076 1127 C 890.596 1145.604, 886.618 1152.124, 885.536 1155.750 C 884.952 1157.710, 885.228 1158, 887.683 1157.997 C 891.049 1157.993, 902.209 1154.979, 922.279 1148.654 C 945.868 1141.221, 944.412 1141.317, 949.921 1146.828 C 952.489 1149.398, 960.488 1159.375, 967.697 1169 C 982.397 1188.627, 985.647 1192.188, 986.946 1190.088 C 988.688 1187.269, 989.082 1171.710, 987.995 1148.647 C 987.377 1135.528, 987.013 1124.688, 987.186 1124.557 C 987.359 1124.425, 996.725 1121.212, 1008 1117.415 C 1028.352 1110.561, 1044.016 1103.667, 1044.782 1101.228 C 1045.506 1098.922, 1028.352 1092.383, 995.607 1082.481 L 986.713 1079.791 987.344 1070.146 C 988.774 1048.259, 989.332 1008, 988.205 1008 C 987.592 1008, 984.453 1011.487, 981.230 1015.750 M 1084.683 1035.965 C 1080.427 1041.023, 1080.082 1050.090, 1083.657 1063 C 1085.231 1068.688, 1087.400 1072, 1089.548 1072 C 1090.896 1072, 1092 1074.184, 1092 1076.850 C 1092 1079.838, 1096.994 1086, 1102.998 1090.420 L 1108.847 1094.725 1102.607 1095.308 C 1094.411 1096.073, 1086.743 1099.029, 1077.784 1104.878 C 1065.647 1112.801, 1061.279 1118.952, 1059.417 1130.745 C 1058.590 1135.980, 1060.016 1138, 1064.541 1138 C 1069.158 1138, 1071.012 1137.099, 1072.059 1134.346 C 1073.123 1131.546, 1076.636 1130, 1081.931 1130 C 1090.903 1130, 1106.488 1119.151, 1128.128 1097.842 C 1144.868 1081.358, 1146.545 1078.066, 1146.387 1062 C 1146.250 1047.990, 1144.695 1039.979, 1141.338 1035.990 C 1137.763 1031.741, 1133.749 1031.926, 1129.395 1036.543 C 1124.466 1041.769, 1122.095 1050.614, 1120.830 1068.500 C 1119.253 1090.793, 1118.237 1091.016, 1113.126 1070.186 C 1109.403 1055.013, 1105.139 1046.174, 1097.961 1038.750 C 1091.413 1031.978, 1088.544 1031.376, 1084.683 1035.965 M 965.084 1057.996 C 956.404 1070.503, 949.168 1078, 945.776 1078 C 944.707 1078, 940.383 1077.134, 936.167 1076.075 C 927.294 1073.848, 910.920 1070.747, 910.460 1071.206 C 910.288 1071.379, 913.541 1076.015, 917.690 1081.510 C 925.540 1091.905, 929.974 1099.915, 929.990 1103.730 C 930.009 1108.084, 926.523 1114.519, 917.823 1126.183 C 912.975 1132.682, 909.223 1138, 909.484 1138 C 909.745 1138, 914.580 1136.685, 920.229 1135.078 C 941.265 1129.095, 948.200 1128.787, 955.052 1133.536 C 957.049 1134.920, 962.467 1141.062, 967.091 1147.186 L 975.500 1158.320 976 1139.361 C 976.562 1118.046, 976.994 1116.598, 983.641 1113.747 C 985.764 1112.836, 992.330 1110.240, 998.234 1107.976 C 1004.138 1105.713, 1009.269 1103.374, 1009.637 1102.779 C 1010.707 1101.046, 1007.445 1099.314, 995.821 1095.440 C 983.847 1091.450, 979.711 1088.683, 978.007 1083.522 C 977.388 1081.645, 976.120 1072.405, 975.190 1062.989 L 973.500 1045.870 965.084 1057.996 M 536.331 1049.618 C 533.700 1053.633, 534.038 1061.347, 536.982 1064.481 C 542.540 1070.398, 550.043 1065.078, 548.411 1056.378 C 547.706 1052.618, 542.567 1047, 539.833 1047 C 538.850 1047, 537.274 1048.178, 536.331 1049.618 M 1066.573 1077.336 C 1063.638 1080.271, 1063.440 1081.755, 1065.377 1086.282 C 1068.179 1092.831, 1075.397 1097.471, 1081.030 1096.344 C 1084.143 1095.721, 1088 1091.832, 1088 1089.315 C 1088 1084.364, 1079.203 1076.394, 1072.545 1075.314 C 1069.796 1074.867, 1068.656 1075.254, 1066.573 1077.336 M 586.635 1110.073 C 584.888 1111.447, 584 1113.107, 584 1115 C 584 1118.080, 587.909 1122, 590.980 1122 C 593.288 1122, 595.460 1124.574, 597.843 1130.133 C 599.928 1134.997, 603.164 1138, 606.321 1138 C 609.625 1138, 615.137 1134.771, 616.083 1132.281 C 617.452 1128.682, 615.622 1126.250, 609.515 1123.549 C 604.134 1121.169, 602.033 1118.646, 600.664 1112.921 C 599.504 1108.069, 591.300 1106.403, 586.635 1110.073 M 1124.420 1142.885 C 1122.726 1143.918, 1120.733 1146.232, 1119.989 1148.026 C 1118.725 1151.077, 1118.794 1151.415, 1121.053 1153.244 C 1125.792 1157.081, 1135 1153.515, 1135 1147.844 C 1135 1145.660, 1130.771 1140.998, 1128.795 1141.004 C 1128.083 1141.006, 1126.114 1141.853, 1124.420 1142.885 M 494.149 1150.887 C 493.128 1151.534, 493.740 1152.448, 496.649 1154.622 C 501.903 1158.548, 503.070 1160.139, 502.510 1162.610 C 501.947 1165.096, 504.097 1167.307, 509.116 1169.404 C 513.822 1171.370, 515.232 1173.227, 514.435 1176.404 C 513.913 1178.482, 514.154 1179.022, 515.642 1179.111 C 525.037 1179.670, 529.597 1175.152, 525.517 1169.327 C 524.701 1168.163, 522.009 1166.023, 519.535 1164.573 C 514.442 1161.589, 513 1159.485, 513 1155.041 C 513 1152.644, 512.425 1151.732, 510.435 1150.975 C 507.282 1149.776, 495.998 1149.715, 494.149 1150.887 M 1101.667 1171.667 C 1101.300 1172.033, 1101 1174.468, 1101 1177.076 C 1101 1183.436, 1107.776 1196.914, 1120.994 1216.843 C 1130.784 1231.604, 1134.716 1235.912, 1137.071 1234.456 C 1140.968 1232.047, 1133.147 1212.878, 1119.246 1190.771 C 1109.104 1174.642, 1104.114 1169.219, 1101.667 1171.667 M 557.223 1222.557 C 555.685 1223.634, 555 1225.136, 555 1227.434 C 555 1231.341, 555.989 1232.321, 562.008 1234.378 C 564.479 1235.222, 567.400 1237.081, 568.500 1238.509 C 577.370 1250.024, 581.747 1252.706, 586.541 1249.565 C 591.821 1246.105, 588.609 1238.044, 580.525 1234.469 C 575.096 1232.067, 572 1228.932, 572 1225.834 C 572 1223.243, 568.055 1221, 563.500 1221 C 561.270 1221, 558.445 1221.701, 557.223 1222.557" stroke="none" fill="#b46529" fill-rule="evenodd"/></svg>